<svg width="532" height="262" viewBox="0 0 532 262" fill="none" xmlns="http://www.w3.org/2000/svg">
<g clip-path="url(#clip0_2116_6108)">
<path d="M0 0H91.6104C127.56 0 136.511 15.618 136.511 29.6941V31.5417C136.511 47.2262 122.839 55.1614 113.382 56.3444C127.587 58.3781 142.762 67.3235 142.762 87.3943V89.2552C142.762 106.295 132.468 125.516 92.1291 125.516H0V0ZM34.7928 26.1452V48.5952H86.6096C97.0767 48.5952 100.282 43.531 100.282 37.6161V37.3237C100.282 31.2493 96.9038 26.1984 86.6096 26.1984L34.7928 26.1585V26.1452ZM34.7928 73.2252V98.0146H89.3228C101.639 98.0146 105.017 91.7807 105.017 85.3607V84.6961C105.017 78.4489 101.639 73.2252 89.3228 73.2252H34.7928Z" fill="#00F957"/>
<path d="M138.586 231.146V244.133C138.586 253.57 139.61 256.095 140.621 258.129V258.966H104.671C104.166 258.129 103.487 255.776 103.487 250.194V239.919C103.487 223.716 97.5821 216.299 80.0261 216.299H34.7928V258.966H0V133.464H84.5747C132.348 133.464 137.748 153.335 137.748 167.039V168.728C137.748 184.412 126.949 195.046 111.241 198.541C128.292 202.423 138.586 212.737 138.586 231.106M34.7928 187.788H83.2314C97.4358 187.788 101.28 181.714 101.28 174.456V174.111C101.28 167.013 97.3959 161.125 83.2314 161.125H34.7928V187.788Z" fill="#00F957"/>
<path d="M226.553 131.444C285.286 131.444 302.004 166.043 302.004 193.371V198.422C302.004 225.391 285.286 261.013 226.553 261.013H219.119C160.372 261.013 143.668 225.418 143.668 198.422V193.371C143.668 166.043 160.372 131.444 219.119 131.444H226.553ZM222.829 160.128C187.717 160.128 179.79 179.188 179.79 194.713V197.066C179.79 212.259 188.223 232.157 222.829 232.157C257.436 232.157 265.868 212.285 265.868 197.066V194.713C265.868 179.202 258.287 160.128 222.829 160.128Z" fill="#00F957"/>
<path d="M210.368 31.4753L230.983 84.8822H220.942L215.848 70.7263H194.714L189.474 84.8822H179.805L200.42 31.4753H210.381H210.368ZM213.374 63.6816L205.421 41.2049L197.095 63.6816H213.374Z" fill="#FDFDFD"/>
<path d="M274.457 70.2743C273.858 75.0195 271.956 78.8077 268.764 81.6256C265.572 84.4435 261.542 85.8658 256.701 85.8658C250.902 85.8658 246.287 84.0315 242.829 80.3629C239.371 76.681 237.656 71.8827 237.656 65.9412C237.656 59.5478 239.385 54.4703 242.869 50.6954C246.341 46.9205 251.022 45.033 256.927 45.033C261.875 45.033 265.852 46.2824 268.884 48.7813C271.903 51.2802 273.672 54.7494 274.164 59.1889H265.692C265.187 56.7432 264.202 54.869 262.7 53.5797C261.197 52.2771 259.308 51.6258 257.007 51.6258C253.709 51.6258 251.102 52.8619 249.213 55.3342C247.312 57.8065 246.367 61.196 246.367 65.4893C246.367 69.7825 247.272 73.1321 249.107 75.5246C250.929 77.9172 253.456 79.1268 256.715 79.1268C259.268 79.1268 261.356 78.3691 262.979 76.8405C264.601 75.312 265.639 73.1321 266.091 70.2876H274.483L274.457 70.2743Z" fill="#FDFDFD"/>
<path d="M285.177 58.1388C286.068 49.406 291.72 45.033 302.121 45.033C306.962 45.033 310.819 45.9767 313.705 47.8775C316.578 49.7782 318.014 52.7157 318.014 56.7166V76.3355C318.014 77.4387 318.147 78.183 318.427 78.5818C318.693 78.9805 319.238 79.1799 320.036 79.1799C320.634 79.1799 321.286 79.1268 321.978 79.0337V85.0284C319.783 85.5733 317.934 85.8525 316.432 85.8525C312.787 85.8525 310.686 84.3106 310.141 81.2136C306.895 84.3106 302.373 85.8525 296.575 85.8525C292.571 85.8525 289.406 84.8157 287.052 82.7422C284.698 80.6686 283.527 77.864 283.527 74.3151C283.527 73.2119 283.647 72.1884 283.9 71.2447C284.152 70.2876 284.432 69.4768 284.764 68.7724C285.097 68.0679 285.615 67.4299 286.334 66.8317C287.065 66.2336 287.664 65.7285 288.129 65.3298C288.608 64.931 289.379 64.5588 290.457 64.2132C291.534 63.8544 292.332 63.6018 292.851 63.4157C293.369 63.2429 294.287 63.0568 295.59 62.8575C296.894 62.6581 297.745 62.5252 298.171 62.4454C298.596 62.3657 299.487 62.2593 300.831 62.0998C303.876 61.7011 305.951 61.3688 307.055 61.0896C308.159 60.8105 308.904 60.3984 309.303 59.8535C309.649 59.4547 309.821 58.5243 309.821 57.0755C309.821 53.1809 307.161 51.2403 301.868 51.2403C299.062 51.2403 297.014 51.7587 295.723 52.8088C294.42 53.8588 293.596 55.6267 293.25 58.1255H285.15L285.177 58.1388ZM309.755 65.476C309.103 65.8348 308.359 66.1406 307.507 66.4197C306.656 66.6988 305.965 66.8716 305.446 66.9381C304.927 67.0045 304.102 67.1242 302.972 67.2704C301.855 67.4166 301.11 67.5229 300.764 67.5628C299.714 67.709 298.889 67.8552 298.29 67.9748C297.692 68.1078 296.96 68.3071 296.083 68.6129C295.205 68.9053 294.54 69.2775 294.061 69.7028C293.582 70.1281 293.17 70.6997 292.824 71.4174C292.478 72.1485 292.305 72.9992 292.305 73.9961C292.305 75.8437 292.917 77.2659 294.141 78.2761C295.364 79.2863 297.08 79.7648 299.275 79.7648C303.065 79.7648 305.991 78.7413 308.053 76.6943C309.196 75.5379 309.768 73.3182 309.768 70.0218V65.4494L309.755 65.476Z" fill="#FDFDFD"/>
<path d="M368.37 31.5549V84.8953H360.35V79.5786C357.903 83.8187 353.78 85.9454 347.981 85.9454C342.528 85.9454 338.192 84.0978 334.974 80.4027C331.742 76.7075 330.133 71.7364 330.133 65.4892C330.133 59.242 331.715 54.3638 334.894 50.6953C338.059 47.0134 342.329 45.1791 347.675 45.1791C353.022 45.1791 357.211 47.1995 359.964 51.2535V31.5549H368.37ZM349.258 52.0776C346.013 52.0776 343.446 53.2606 341.571 55.6398C339.695 58.0191 338.764 61.2357 338.764 65.3429C338.764 69.4501 339.722 72.9326 341.65 75.3783C343.579 77.8241 346.212 79.0602 349.564 79.0602C352.915 79.0602 355.522 77.8639 357.398 75.4581C359.273 73.0523 360.204 69.7426 360.204 65.4892C360.204 61.2357 359.246 57.9526 357.318 55.6C355.389 53.2473 352.703 52.0776 349.258 52.0776Z" fill="#FDFDFD"/>
<path d="M416.649 72.8265C415.705 77.0267 413.643 80.2832 410.465 82.6359C407.286 84.9886 403.509 86.1583 399.106 86.1583C393.254 86.1583 388.626 84.2708 385.208 80.4959C381.777 76.7343 380.074 71.8961 380.074 65.9944C380.074 60.0928 381.843 54.9622 385.354 51.0145C388.879 47.0668 393.361 45.0996 398.814 45.0996C404.267 45.0996 408.935 47.0402 412.234 50.9081C415.532 54.7761 417.181 60.0663 417.181 66.7521V67.6559H388.626C388.719 71.5505 389.703 74.5544 391.552 76.6811C393.401 78.8079 395.981 79.8712 399.279 79.8712C401.62 79.8712 403.535 79.3129 405.012 78.1831C406.488 77.0666 407.645 75.2722 408.496 72.8265H416.662H416.649ZM408.629 61.967C408.376 58.7238 407.366 56.1584 405.597 54.2843C403.828 52.4101 401.54 51.4797 398.734 51.4797C395.928 51.4797 393.667 52.3702 391.951 54.1779C390.235 55.9723 389.171 58.5776 388.772 61.967H408.642H408.629Z" fill="#FDFDFD"/>
<path d="M436.358 46.2293V51.6922C439.55 47.3458 443.593 45.1792 448.501 45.1792C451.054 45.1792 453.262 45.7641 455.137 46.9072C457.013 48.0636 458.396 49.6852 459.3 51.772C462.399 47.3724 466.575 45.1792 471.816 45.1792C475.46 45.1792 478.492 46.2691 480.886 48.4357C483.28 50.6023 484.49 53.6196 484.49 57.4609V84.8822H475.939V61.1428C475.939 58.3914 475.46 56.2514 474.515 54.6962C473.571 53.1544 471.749 52.3701 469.049 52.3701C466.349 52.3701 464.208 53.2341 462.758 54.9488C461.309 56.6767 460.59 59.0826 460.59 62.1796V84.8822H452.038V60.6909C452.038 57.9527 451.626 55.8792 450.802 54.4703C449.977 53.0746 448.261 52.3701 445.668 52.3701C442.768 52.3701 440.574 53.3139 439.071 55.1747C437.568 57.0356 436.823 59.5345 436.823 62.6182V84.8689H428.285V46.216H436.384L436.358 46.2293Z" fill="#FDFDFD"/>
<path d="M532 46.2292L517.689 84.1377C517.543 84.4966 517.264 85.2276 516.865 86.3442C516.466 87.4607 516.2 88.2316 516.04 88.6304C515.894 89.0291 515.601 89.7336 515.175 90.7305C514.75 91.7274 514.417 92.432 514.165 92.8307C513.912 93.2295 513.54 93.8275 513.034 94.625C512.529 95.4225 512.077 96.0075 511.651 96.3531C511.225 96.6987 510.693 97.1372 510.082 97.6689C509.47 98.2006 508.818 98.5727 508.166 98.7854C507.515 99.0114 506.77 99.2107 505.959 99.3835C505.134 99.5563 504.256 99.6494 503.299 99.6494C501.703 99.6494 499.721 99.5032 497.38 99.1974V92.0065C499.176 92.3654 500.678 92.5249 501.875 92.5249C502.474 92.5249 503.019 92.4452 503.525 92.2591C504.03 92.0863 504.469 91.7806 504.868 91.3685C505.267 90.9432 505.613 90.5444 505.919 90.1722C506.211 89.8001 506.504 89.2817 506.783 88.6038C507.062 87.9392 507.275 87.4075 507.422 87.0354C507.568 86.6632 507.767 86.0783 508.02 85.2675C508.273 84.4567 508.419 83.9782 508.472 83.7788L493.629 46.2425H502.993L513.34 74.7137L523.076 46.2425H532V46.2292Z" fill="#FDFDFD"/>
</g>
<defs>
<clipPath id="clip0_2116_6108">
<rect width="532" height="262" fill="white"/>
</clipPath>
</defs>
</svg>
