<svg width="188" height="43" viewBox="0 0 188 43" fill="none" xmlns="http://www.w3.org/2000/svg">
<g clip-path="url(#clip0_30446_3788)">
<path d="M35.6376 23.4672V29.4068C35.6376 29.4753 35.6363 29.5438 35.6322 29.6122C35.6309 29.6256 35.6309 29.6404 35.6295 29.6538C35.6269 29.6941 35.6242 29.7344 35.6201 29.776C35.6161 29.8162 35.6121 29.8565 35.6067 29.8968C35.6027 29.9357 35.596 29.9746 35.5906 30.0122C35.5812 30.0699 35.5718 30.1263 35.5597 30.184C35.553 30.2203 35.545 30.2552 35.5369 30.2914C35.5289 30.3223 35.5208 30.3545 35.5128 30.3867C35.5061 30.4162 35.498 30.4444 35.4886 30.474C35.4524 30.6042 35.4081 30.733 35.3571 30.8592C35.3463 30.886 35.3356 30.9142 35.3235 30.9411C35.2926 31.0149 35.2591 31.0874 35.2228 31.1585C35.2054 31.1948 35.1866 31.2297 35.1678 31.2646L35.1665 31.2632L28.447 27.5236L17.9235 21.6659L25.8376 18.0229L35.4953 23.3894L35.6376 23.4672Z" fill="url(#paint0_linear_30446_3788)"/>
<path d="M35.5195 12.3829L33.4712 13.9614L31.6578 16.8124L14.4162 7.21511L20.9678 2.61377L24.9276 4.90102H24.9289L32.1853 9.09028L33.6873 9.95739C34.6121 10.4916 35.2645 11.3722 35.5195 12.3829Z" fill="url(#paint1_linear_30446_3788)"/>
<path d="M24.9275 4.90091L0 19.1814V13.3372C0 11.9425 0.743624 10.6539 1.95034 9.95729L15.8685 1.92239C17.0752 1.22574 18.5624 1.22574 19.7705 1.92239L24.9275 4.90091Z" fill="#0265DC"/>
<path d="M35.6376 13.3373V15.3655L3.43758 33.646L1.95034 32.787C0.743624 32.089 0 30.8017 0 29.4071V27.3829L32.1852 9.09033L33.6872 9.95745C34.894 10.6541 35.6376 11.9427 35.6376 13.3373Z" fill="#0265DC"/>
<path d="M35.6376 23.3062V29.4068C35.6376 29.4753 35.6363 29.5437 35.6322 29.6122C35.6309 29.6256 35.6309 29.6404 35.6296 29.6538C35.6269 29.6941 35.6242 29.7343 35.6202 29.776C35.6161 29.8162 35.6121 29.8565 35.6067 29.8968C35.6027 29.9357 35.596 29.9746 35.5906 30.0122C35.5812 30.0699 35.5718 30.1263 35.5598 30.184C35.5531 30.2202 35.545 30.2551 35.5369 30.2914C35.5289 30.3223 35.5208 30.3545 35.5128 30.3867C35.5061 30.4162 35.498 30.4444 35.4886 30.4739C35.4524 30.6041 35.4081 30.733 35.3571 30.8592C35.3463 30.886 35.3356 30.9142 35.3235 30.9411C35.2927 31.0149 35.2591 31.0874 35.2229 31.1585C35.2054 31.1947 35.1866 31.2296 35.1678 31.2645C35.1463 31.3035 35.1249 31.3424 35.102 31.38C35.0806 31.4189 35.0564 31.4565 35.0336 31.4941C34.9853 31.5679 34.9356 31.6417 34.8833 31.7129C34.8296 31.7853 34.7745 31.8551 34.7182 31.9223C34.6886 31.9572 34.6591 31.9907 34.6296 32.0229C34.6 32.0565 34.5692 32.0887 34.5383 32.1209C34.4765 32.1853 34.4121 32.2484 34.345 32.3075C34.3195 32.3317 34.2927 32.3545 34.2658 32.3773C34.2497 32.3907 34.2336 32.4041 34.2175 32.4176C34.1853 32.4458 34.1517 32.4726 34.1168 32.4981C34.0833 32.5249 34.0497 32.5504 34.0135 32.5746C33.9463 32.6243 33.8765 32.6713 33.8054 32.7155C33.7665 32.7397 33.7275 32.7639 33.6873 32.7867L19.7705 40.8216C18.5624 41.5182 17.0752 41.5182 15.8685 40.8216L10.7786 37.8833L28.447 27.5236L35.4953 23.3894L35.6376 23.3062Z" fill="#0265DC"/>
<path d="M6.99866 7.04297V35.7007L3.43758 33.6457L1.95034 32.7866C0.743624 32.0886 0 30.8014 0 29.4067V13.3369C0 11.9423 0.743624 10.6537 1.95034 9.95706L6.99866 7.04297Z" fill="#0265DC"/>
</g>
<path d="M71.072 26.9279C71.072 28.6345 70.5387 29.9252 69.472 30.7999C68.4267 31.6745 66.5707 32.1119 63.904 32.1119H53.92V11.8559H63.584C65.3547 11.8559 66.7307 12.0479 67.712 12.4319C68.7147 12.7945 69.4187 13.3385 69.824 14.0639C70.2293 14.7892 70.432 15.6959 70.432 16.7839C70.432 18.2772 70.0693 19.4399 69.344 20.2719C68.64 21.0825 67.3067 21.5732 65.344 21.7439V21.8399C66.7947 21.9465 67.936 22.1919 68.768 22.5759C69.6 22.9385 70.1867 23.4719 70.528 24.1759C70.8907 24.8799 71.072 25.7972 71.072 26.9279ZM62.176 15.8879H59.04V19.8559H62.176C63.2213 19.8559 63.9787 19.7279 64.448 19.4719C64.9173 19.1945 65.152 18.6612 65.152 17.8719C65.152 17.1039 64.9173 16.5812 64.448 16.3039C63.9787 16.0265 63.2213 15.8879 62.176 15.8879ZM62.816 24.0479H59.04V28.1119H62.816C63.8613 28.1119 64.6187 27.9732 65.088 27.6959C65.5573 27.3972 65.792 26.8532 65.792 26.0639C65.792 25.2532 65.5573 24.7199 65.088 24.4639C64.6187 24.1865 63.8613 24.0479 62.816 24.0479Z" fill="#0265DC"/>
<path d="M79.0712 32.1119H73.9512V11.8559H79.0712V32.1119Z" fill="#0265DC"/>
<path d="M96.04 11.8559H101.16V32.1119H96.072L90.312 23.5359C89.864 22.8532 89.4907 22.2772 89.192 21.8079C88.8933 21.3385 88.616 20.8692 88.36 20.3999C88.104 19.9305 87.816 19.3759 87.496 18.7359L87.4 18.8639C87.6987 19.8879 87.88 20.8479 87.944 21.7439C88.008 22.6185 88.04 23.4719 88.04 24.3039V32.1119H82.92V11.8559H88.008L93.768 20.4319C94.216 21.0932 94.5893 21.6692 94.888 22.1599C95.1867 22.6292 95.464 23.0985 95.72 23.5679C95.976 24.0372 96.264 24.5919 96.584 25.2319L96.68 25.1039C96.4667 24.2079 96.3067 23.3439 96.2 22.5119C96.0933 21.6585 96.04 20.8159 96.04 19.9839V11.8559Z" fill="#0265DC"/>
<path d="M123.574 32.0159V32.1119H118.134C117.984 31.5999 117.803 31.0132 117.59 30.3519C117.398 29.6905 117.184 28.9865 116.95 28.2399H110.038C109.611 29.7332 109.216 31.0239 108.854 32.1119H103.414V32.0479L109.974 11.8559H117.014L123.574 32.0159ZM113.43 15.5039C113.216 16.5919 112.907 17.9145 112.502 19.4719C112.096 21.0292 111.67 22.6185 111.222 24.2399H115.798C115.328 22.6185 114.891 21.0292 114.486 19.4719C114.08 17.9145 113.771 16.5919 113.558 15.5039H113.43Z" fill="#0265DC"/>
<path d="M142.978 26.9279C142.978 28.6345 142.445 29.9252 141.378 30.7999C140.333 31.6745 138.477 32.1119 135.81 32.1119H125.826V11.8559H135.49C137.261 11.8559 138.637 12.0479 139.618 12.4319C140.621 12.7945 141.325 13.3385 141.73 14.0639C142.136 14.7892 142.338 15.6959 142.338 16.7839C142.338 18.2772 141.976 19.4399 141.25 20.2719C140.546 21.0825 139.213 21.5732 137.25 21.7439V21.8399C138.701 21.9465 139.842 22.1919 140.674 22.5759C141.506 22.9385 142.093 23.4719 142.434 24.1759C142.797 24.8799 142.978 25.7972 142.978 26.9279ZM134.082 15.8879H130.946V19.8559H134.082C135.128 19.8559 135.885 19.7279 136.354 19.4719C136.824 19.1945 137.058 18.6612 137.058 17.8719C137.058 17.1039 136.824 16.5812 136.354 16.3039C135.885 16.0265 135.128 15.8879 134.082 15.8879ZM134.722 24.0479H130.946V28.1119H134.722C135.768 28.1119 136.525 27.9732 136.994 27.6959C137.464 27.3972 137.698 26.8532 137.698 26.0639C137.698 25.2532 137.464 24.7199 136.994 24.4639C136.525 24.1865 135.768 24.0479 134.722 24.0479Z" fill="#0265DC"/>
<path d="M145.217 21.9679C145.217 19.3865 145.506 17.3385 146.081 15.8239C146.679 14.3092 147.692 13.2212 149.121 12.5599C150.572 11.8985 152.588 11.5679 155.169 11.5679C157.111 11.5679 158.721 11.7492 160.001 12.1119C161.281 12.4745 162.295 13.0612 163.041 13.8719C163.788 14.6825 164.311 15.7599 164.609 17.1039C164.929 18.4265 165.09 20.0479 165.09 21.9679C165.09 23.9092 164.929 25.5519 164.609 26.8959C164.311 28.2185 163.788 29.2852 163.041 30.0959C162.295 30.9065 161.281 31.4932 160.001 31.8559C158.721 32.2185 157.111 32.3999 155.169 32.3999C153.228 32.3999 151.618 32.2185 150.338 31.8559C149.058 31.4932 148.044 30.9065 147.298 30.0959C146.551 29.2852 146.017 28.2185 145.697 26.8959C145.377 25.5519 145.217 23.9092 145.217 21.9679ZM155.169 27.9199C156.535 27.9199 157.559 27.7492 158.242 27.4079C158.924 27.0665 159.383 26.4692 159.618 25.6159C159.852 24.7412 159.969 23.5252 159.969 21.9679C159.969 20.4319 159.852 19.2372 159.618 18.3839C159.383 17.5305 158.924 16.9332 158.242 16.5919C157.559 16.2292 156.535 16.0479 155.169 16.0479C153.825 16.0479 152.801 16.2292 152.097 16.5919C151.415 16.9332 150.945 17.5305 150.689 18.3839C150.455 19.2372 150.338 20.4319 150.338 21.9679C150.338 23.5252 150.455 24.7412 150.689 25.6159C150.945 26.4692 151.415 27.0665 152.097 27.4079C152.801 27.7492 153.825 27.9199 155.169 27.9199Z" fill="#0265DC"/>
<path d="M181.351 21.7759L187.271 32.1119H180.871L177.191 24.9439H177.095L173.415 32.1119H167.015L172.935 21.7759V21.6159L167.399 11.8559H173.703L177.095 18.8959H177.191L180.583 11.8559H186.887L181.351 21.6159V21.7759Z" fill="#0265DC"/>
<defs>
<linearGradient id="paint0_linear_30446_3788" x1="34.5638" y1="27.8431" x2="20.2685" y2="18.0444" gradientUnits="userSpaceOnUse">
<stop stop-color="#0265DC"/>
<stop offset="1" stop-color="#0265DC" stop-opacity="0"/>
</linearGradient>
<linearGradient id="paint1_linear_30446_3788" x1="32.2148" y1="14.2862" x2="19.2618" y2="5.89698" gradientUnits="userSpaceOnUse">
<stop stop-color="#0265DC"/>
<stop offset="1" stop-color="#0265DC" stop-opacity="0"/>
</linearGradient>
<clipPath id="clip0_30446_3788">
<rect width="36" height="40" fill="white" transform="translate(0 1.3999)"/>
</clipPath>
</defs>
</svg>
