<svg width="16" height="16" viewBox="0 0 16 16" fill="none" xmlns="http://www.w3.org/2000/svg">
<path fill-rule="evenodd" clip-rule="evenodd" d="M5.33301 0.666626C5.7012 0.666626 5.99967 0.965103 5.99967 1.33329V1.99996H9.99967V1.33329C9.99967 0.965103 10.2982 0.666626 10.6663 0.666626C11.0345 0.666626 11.333 0.965103 11.333 1.33329V2.00104C11.65 2.00322 11.927 2.00977 12.1676 2.02942C12.5423 2.06004 12.8868 2.12575 13.2103 2.29061C13.7121 2.54627 14.12 2.95422 14.3757 3.45598C14.5406 3.77954 14.6063 4.12401 14.6369 4.49874C14.6664 4.85953 14.6663 5.30244 14.6663 5.83908V11.4942C14.6663 12.0308 14.6664 12.4737 14.6369 12.8345C14.6063 13.2092 14.5406 13.5537 14.3757 13.8773C14.12 14.379 13.7121 14.787 13.2103 15.0426C12.8868 15.2075 12.5423 15.2732 12.1676 15.3038C11.8068 15.3333 11.3639 15.3333 10.8272 15.3333H5.17213C4.63549 15.3333 4.19258 15.3333 3.83179 15.3038C3.45706 15.2732 3.11259 15.2075 2.78903 15.0426C2.28727 14.787 1.87932 14.379 1.62366 13.8773C1.4588 13.5537 1.39309 13.2092 1.36247 12.8345C1.33299 12.4737 1.333 12.0308 1.33301 11.4942V5.83909C1.333 5.30245 1.33299 4.85954 1.36247 4.49874C1.39309 4.12401 1.4588 3.77954 1.62366 3.45598C1.87932 2.95422 2.28727 2.54627 2.78903 2.29061C3.11259 2.12575 3.45706 2.06004 3.83179 2.02942C4.07233 2.00977 4.34936 2.00322 4.66634 2.00104V1.33329C4.66634 0.965103 4.96482 0.666626 5.33301 0.666626ZM4.66634 3.33447C4.36932 3.33655 4.13609 3.34234 3.94037 3.35833C3.64809 3.38221 3.49862 3.42549 3.39435 3.47862C3.14347 3.60645 2.9395 3.81042 2.81167 4.06131C2.75854 4.16557 2.71526 4.31504 2.69138 4.60732C2.66686 4.90738 2.66634 5.29557 2.66634 5.86663V5.99996H13.333V5.86663C13.333 5.29557 13.3325 4.90738 13.308 4.60732C13.2841 4.31504 13.2408 4.16557 13.1877 4.06131C13.0599 3.81042 12.8559 3.60645 12.605 3.47862C12.5007 3.42549 12.3513 3.38221 12.059 3.35833C11.8633 3.34234 11.63 3.33655 11.333 3.33447V3.99996C11.333 4.36815 11.0345 4.66663 10.6663 4.66663C10.2982 4.66663 9.99967 4.36815 9.99967 3.99996V3.33329H5.99967V3.99996C5.99967 4.36815 5.7012 4.66663 5.33301 4.66663C4.96482 4.66663 4.66634 4.36815 4.66634 3.99996V3.33447ZM13.333 7.33329H2.66634V11.4666C2.66634 12.0377 2.66686 12.4259 2.69138 12.7259C2.71526 13.0182 2.75854 13.1677 2.81167 13.2719C2.9395 13.5228 3.14347 13.7268 3.39435 13.8546C3.49862 13.9078 3.64809 13.951 3.94037 13.9749C4.24043 13.9994 4.62862 14 5.19967 14H10.7997C11.3707 14 11.7589 13.9994 12.059 13.9749C12.3513 13.951 12.5007 13.9078 12.605 13.8546C12.8559 13.7268 13.0599 13.5228 13.1877 13.2719C13.2408 13.1677 13.2841 13.0182 13.308 12.7259C13.3325 12.4259 13.333 12.0377 13.333 11.4666V7.33329Z" fill="#E7F1FD" fill-opacity="0.49"/>
</svg>
