<svg width="22" height="17" viewBox="0 0 22 17" fill="none" xmlns="http://www.w3.org/2000/svg">
<path d="M18.9511 2.17422C17.0474 0.666915 14.0358 0.411408 13.9069 0.402217C13.707 0.385673 13.5165 0.495964 13.4343 0.677944C13.4268 0.688973 13.3614 0.837866 13.2886 1.06948C14.5477 1.27903 16.0946 1.69997 17.4939 2.55473C17.7181 2.69075 17.7872 2.98118 17.6489 3.20177C17.5574 3.34698 17.4023 3.42602 17.2417 3.42602C17.1557 3.42602 17.0679 3.40213 16.9895 3.35433C14.5832 1.88563 11.5791 1.8121 11 1.8121C10.4209 1.8121 7.41491 1.88563 5.01053 3.35433C4.78635 3.4922 4.49117 3.42419 4.35292 3.2036C4.21281 2.98118 4.28193 2.69259 4.50611 2.55473C5.9054 1.70181 7.45228 1.27903 8.71145 1.07131C8.63859 0.837866 8.5732 0.690811 8.5676 0.677944C8.48353 0.495964 8.29484 0.381997 8.09307 0.402217C7.96416 0.411408 4.95262 0.666915 3.02276 2.19444C2.0158 3.1117 0 8.47183 0 13.1059C0 13.1886 0.0224185 13.2676 0.0635192 13.3393C1.45346 15.7437 5.24779 16.3723 6.11277 16.3999C6.11651 16.3999 6.12211 16.3999 6.12772 16.3999C6.28091 16.3999 6.42476 16.3282 6.51444 16.2069L7.38876 15.0231C5.02921 14.4239 3.82422 13.4055 3.7551 13.3448C3.55707 13.1739 3.53838 12.8761 3.71399 12.6813C3.88774 12.4864 4.19039 12.468 4.38842 12.639C4.41644 12.6647 6.63587 14.5176 11 14.5176C15.3716 14.5176 17.591 12.6574 17.6135 12.639C17.8115 12.4699 18.1123 12.4864 18.2879 12.6831C18.4616 12.8779 18.4429 13.1739 18.2449 13.3448C18.1758 13.4055 16.9708 14.4239 14.6112 15.0231L15.4856 16.2069C15.5752 16.3282 15.7191 16.3999 15.8723 16.3999C15.8779 16.3999 15.8835 16.3999 15.8872 16.3999C16.7522 16.3723 20.5465 15.7437 21.9365 13.3393C21.9776 13.2676 22 13.1886 22 13.1059C22 8.47183 19.9842 3.1117 18.9511 2.17422ZM7.8913 11.2236C6.96654 11.2236 6.21739 10.3817 6.21739 9.34129C6.21739 8.30088 6.96654 7.45899 7.8913 7.45899C8.81607 7.45899 9.56522 8.30088 9.56522 9.34129C9.56522 10.3817 8.81607 11.2236 7.8913 11.2236ZM14.1087 11.2236C13.1839 11.2236 12.4348 10.3817 12.4348 9.34129C12.4348 8.30088 13.1839 7.45899 14.1087 7.45899C15.0335 7.45899 15.7826 8.30088 15.7826 9.34129C15.7826 10.3817 15.0335 11.2236 14.1087 11.2236Z" fill="#F5F8FB"/>
</svg>
