<svg width="52" height="43" viewBox="0 0 52 43" fill="none" xmlns="http://www.w3.org/2000/svg">
<path fill-rule="evenodd" clip-rule="evenodd" d="M13.7702 0.243287H38.2296C40.1078 0.243257 41.658 0.243233 42.9208 0.346407C44.2324 0.453566 45.438 0.683549 46.5704 1.26056C48.3266 2.15538 49.7544 3.5832 50.6493 5.33938C51.2061 6.43218 51.4397 7.59314 51.5517 8.85167C51.6765 9.23293 51.6983 9.63507 51.6242 10.019C51.6666 11.0693 51.6666 12.2841 51.6665 13.6802V28.8064C51.6666 30.6846 51.6666 32.2348 51.5634 33.4976C51.4563 34.8091 51.2263 36.0148 50.6493 37.1472C49.7544 38.9034 48.3266 40.3312 46.5704 41.226C45.438 41.803 44.2324 42.033 42.9208 42.1402C41.658 42.2433 40.1079 42.2433 38.2296 42.2433H13.7701C11.8919 42.2433 10.3417 42.2433 9.07895 42.1402C7.76739 42.033 6.56175 41.803 5.4293 41.226C3.67312 40.3312 2.2453 38.9034 1.35048 37.1472C0.773469 36.0148 0.543485 34.8091 0.436326 33.4976C0.333153 32.2348 0.333177 30.6846 0.333207 28.8063V13.6803C0.333185 12.2841 0.333165 11.0693 0.375527 10.019C0.301429 9.63507 0.3233 9.2329 0.448044 8.85164C0.560017 7.59313 0.793673 6.43217 1.35048 5.33938C2.2453 3.5832 3.67312 2.15538 5.4293 1.26056C6.56175 0.683549 7.76739 0.453566 9.07895 0.346407C10.3417 0.243233 11.8919 0.243257 13.7702 0.243287ZM4.99987 14.0582V28.71C4.99987 30.7086 5.00169 32.0673 5.08749 33.1175C5.17107 34.1405 5.32257 34.6636 5.50851 35.0286C5.95592 35.9067 6.66983 36.6206 7.54792 37.068C7.91285 37.2539 8.43599 37.4054 9.45896 37.489C10.5092 37.5748 11.8679 37.5766 13.8665 37.5766H38.1332C40.1319 37.5766 41.4906 37.5748 42.5408 37.489C43.5638 37.4054 44.0869 37.2539 44.4518 37.068C45.3299 36.6206 46.0438 35.9067 46.4912 35.0286C46.6772 34.6636 46.8287 34.1405 46.9123 33.1175C46.9981 32.0673 46.9999 30.7086 46.9999 28.71V14.0582L31.6198 24.8242C31.5293 24.8876 31.4396 24.9505 31.3507 25.013C30.0798 25.9053 28.9639 26.6889 27.6929 27.0057C26.5812 27.2828 25.4185 27.2828 24.3068 27.0057C23.0359 26.6889 21.9199 25.9054 20.6491 25.013C20.5602 24.9505 20.4705 24.8876 20.3799 24.8242L4.99987 14.0582ZM46.8067 8.49695L28.9436 21.0011C27.2428 22.1917 26.8824 22.3983 26.5642 22.4776C26.1937 22.57 25.8061 22.57 25.4355 22.4776C25.1173 22.3983 24.757 22.1917 23.0561 21.0011L5.193 8.49695C5.27636 8.01356 5.38481 7.70077 5.50851 7.458C5.95592 6.57991 6.66983 5.866 7.54792 5.41859C7.91285 5.23265 8.43599 5.08115 9.45896 4.99758C10.5092 4.91177 11.8679 4.90996 13.8665 4.90996H38.1332C40.1319 4.90996 41.4906 4.91177 42.5408 4.99758C43.5638 5.08116 44.0869 5.23265 44.4518 5.41859C45.3299 5.866 46.0438 6.57991 46.4912 7.458C46.6149 7.70077 46.7234 8.01356 46.8067 8.49695Z" fill="white"/>
</svg>
