<svg width="20" height="21" viewBox="0 0 20 21" fill="none" xmlns="http://www.w3.org/2000/svg">
<path d="M0.00195312 10.4615C0.00311667 15.4112 3.58035 19.6256 8.43895 20.4014V13.3693H5.90195V10.4615H8.44195V8.248C8.3284 7.19912 8.68447 6.15378 9.41359 5.39548C10.1427 4.63718 11.1693 4.24452 12.215 4.32399C12.9655 4.33619 13.7141 4.40345 14.455 4.52523V6.99936H13.191C12.7558 6.94202 12.3183 7.08662 12.0017 7.39244C11.6851 7.69825 11.5237 8.13218 11.563 8.57199V10.4615H14.334L13.891 13.3703H11.563V20.4014C16.8174 19.5658 20.502 14.7375 19.9475 9.41421C19.3929 4.09094 14.7932 0.136301 9.48078 0.415257C4.16831 0.694213 0.0027976 5.10911 0.00195312 10.4615Z" fill="#F5F8FB"/>
</svg>
