<svg width="22" height="20" viewBox="0 0 22 20" fill="none" xmlns="http://www.w3.org/2000/svg">
<path fill-rule="evenodd" clip-rule="evenodd" d="M9.09001 2.05487C8.96938 2.01326 8.8127 2.00022 8.02229 2.00022H4.2C3.62345 2.00022 3.25117 2.00099 2.96784 2.02414C2.69617 2.04634 2.59546 2.08402 2.54601 2.10921C2.35785 2.20508 2.20487 2.35806 2.109 2.54622C2.0838 2.59567 2.04612 2.69639 2.02393 2.96805C2.00357 3.2172 2.00052 3.53511 2.00007 4.00022H10.382L9.99003 3.21635C9.63656 2.50939 9.55481 2.37508 9.46365 2.2858C9.35776 2.18208 9.23013 2.1032 9.09001 2.05487ZM12.618 4.00022L11.7789 2.32192C11.7602 2.28453 11.7417 2.24744 11.7234 2.21065C11.4586 1.6794 11.2258 1.21221 10.8631 0.85696C10.5454 0.545811 10.1625 0.309177 9.74215 0.164179C9.26219 -0.00136684 8.74022 -0.000677455 8.14666 0.000106346C8.10555 0.000160586 8.0641 0.000215303 8.02229 0.000215303L4.16146 0.00021435C3.63431 0.000196468 3.17955 0.000180971 2.80497 0.0307847C2.40963 0.0630857 2.01641 0.134402 1.63803 0.327196C1.07354 0.614816 0.614602 1.07376 0.326982 1.63824C0.134188 2.01662 0.0628723 2.40984 0.0305712 2.80519C-3.25181e-05 3.17976 -1.70213e-05 3.63452 8.6011e-07 4.16167L1.33695e-06 14.2415C-1.14184e-05 15.0465 -2.19084e-05 15.7108 0.0441954 16.252C0.0901206 16.8141 0.188685 17.3308 0.435976 17.8162C0.819469 18.5688 1.43139 19.1807 2.18404 19.5642C2.66938 19.8115 3.18608 19.9101 3.74818 19.956C4.28937 20.0002 4.95372 20.0002 5.75868 20.0002H16.2413C17.0463 20.0002 17.7106 20.0002 18.2518 19.956C18.8139 19.9101 19.3306 19.8115 19.816 19.5642C20.5686 19.1807 21.1805 18.5688 21.564 17.8162C21.8113 17.3308 21.9099 16.8141 21.9558 16.252C22 15.7109 22 15.0465 22 14.2415V9.75889C22 8.95393 22 8.28958 21.9558 7.74839C21.9099 7.18629 21.8113 6.66959 21.564 6.18425C21.1805 5.4316 20.5686 4.81968 19.816 4.43619C19.3306 4.1889 18.8139 4.09033 18.2518 4.04441C17.7106 4.00019 17.0463 4.0002 16.2413 4.00022L12.618 4.00022ZM11.9799 6.00022C11.9938 6.00051 12.0077 6.00051 12.0217 6.00022H16.2C17.0566 6.00022 17.6389 6.00099 18.089 6.03777C18.5274 6.07359 18.7516 6.13851 18.908 6.2182C19.2843 6.40995 19.5903 6.71591 19.782 7.09223C19.8617 7.24863 19.9266 7.47284 19.9625 7.91125C19.9992 8.36134 20 8.94364 20 9.80022V14.2002C20 15.0568 19.9992 15.6391 19.9625 16.0892C19.9266 16.5276 19.8617 16.7518 19.782 16.9082C19.5903 17.2845 19.2843 17.5905 18.908 17.7822C18.7516 17.8619 18.5274 17.9268 18.089 17.9627C17.6389 17.9994 17.0566 18.0002 16.2 18.0002H5.8C4.94342 18.0002 4.36113 17.9994 3.91104 17.9627C3.47262 17.9268 3.24842 17.8619 3.09202 17.7822C2.7157 17.5905 2.40974 17.2845 2.21799 16.9082C2.1383 16.7518 2.07337 16.5276 2.03755 16.0892C2.00078 15.6391 2 15.0568 2 14.2002V6.00022H11.9799Z" fill="white"/>
</svg>
