<svg width="23" height="21" viewBox="0 0 23 21" fill="none" xmlns="http://www.w3.org/2000/svg">
<path fill-rule="evenodd" clip-rule="evenodd" d="M11.4929 1.96032C9.15298 -0.0845712 5.69252 -0.503028 3.00521 1.79306C0.0984232 4.27669 -0.323907 8.45949 1.97471 11.4173C2.84724 12.5401 4.55023 14.2269 6.18684 15.7717C7.84261 17.3345 9.49457 18.8113 10.3092 19.5328L10.3247 19.5465C10.4013 19.6144 10.4967 19.6989 10.5881 19.7678C10.6975 19.8502 10.8547 19.9525 11.0645 20.0151C11.3434 20.0983 11.6432 20.0983 11.9221 20.0151C12.1319 19.9525 12.289 19.8502 12.3984 19.7678C12.4898 19.6989 12.5852 19.6144 12.6618 19.5465L12.6773 19.5328C13.492 18.8113 15.1439 17.3345 16.7997 15.7717C18.4363 14.2269 20.1393 12.5401 21.0118 11.4173C23.3016 8.47086 22.9445 4.25579 19.9709 1.78429C17.2537 -0.474133 13.8301 -0.0853494 11.4929 1.96032ZM10.7333 4.02916C9.02828 2.03579 6.318 1.59316 4.30441 3.31362C2.2011 5.11073 1.91807 8.08511 3.55392 10.1901C4.31701 11.1721 5.90681 12.7571 7.55966 14.3172C9.1027 15.7737 10.6462 17.1579 11.4933 17.9097C12.3403 17.1579 13.8838 15.7737 15.4269 14.3172C17.0797 12.7571 18.6695 11.1721 19.4326 10.1901C21.0773 8.07375 20.8152 5.0866 18.6925 3.32239C16.6256 1.60445 13.9507 2.0446 12.2532 4.02916C12.0632 4.25127 11.7856 4.37914 11.4933 4.37914C11.201 4.37914 10.9233 4.25127 10.7333 4.02916Z" fill="#0D0D15"/>
</svg>
