<svg width="40" height="41" viewBox="0 0 40 41" fill="none" xmlns="http://www.w3.org/2000/svg">
<path fill-rule="evenodd" clip-rule="evenodd" d="M16.1947 11.2243C17.179 11.179 17.4929 11.1689 20.0003 11.1689C22.5077 11.1689 22.8216 11.1799 23.8051 11.2243C24.7886 11.2688 25.4599 11.4257 26.0473 11.6531C26.6624 11.8856 27.2204 12.2489 27.682 12.7189C28.1519 13.1796 28.5144 13.7368 28.746 14.3527C28.9743 14.9401 29.1304 15.6115 29.1757 16.5933C29.221 17.5793 29.2311 17.8931 29.2311 20.3997C29.2311 22.9071 29.2202 23.221 29.1757 24.2053C29.1312 25.1871 28.9743 25.8585 28.746 26.4459C28.5144 27.0619 28.1513 27.62 27.682 28.0814C27.2204 28.5513 26.6624 28.9138 26.0473 29.1455C25.4599 29.3737 24.7886 29.5298 23.8067 29.5751C22.8216 29.6204 22.5077 29.6305 20.0003 29.6305C17.4929 29.6305 17.179 29.6196 16.1947 29.5751C15.2129 29.5306 14.5416 29.3737 13.9541 29.1455C13.3381 28.9138 12.78 28.5507 12.3186 28.0814C11.849 27.6204 11.4856 27.0626 11.2537 26.4467C11.0263 25.8593 10.8702 25.188 10.8249 24.2062C10.7796 23.2201 10.7695 22.9063 10.7695 20.3997C10.7695 17.8923 10.7804 17.5785 10.8249 16.595C10.8694 15.6115 11.0263 14.9401 11.2537 14.3527C11.4859 13.7368 11.8496 13.179 12.3195 12.718C12.7802 12.2485 13.3378 11.8851 13.9533 11.6531C14.5407 11.4257 15.212 11.2696 16.1939 11.2243H16.1947ZM23.7304 12.8859C22.7569 12.8414 22.4649 12.8322 20.0003 12.8322C17.5357 12.8322 17.2437 12.8414 16.2702 12.8859C15.3698 12.927 14.8814 13.0772 14.5558 13.2039C14.1253 13.3717 13.8174 13.5706 13.4943 13.8937C13.188 14.1916 12.9523 14.5544 12.8045 14.9552C12.6778 15.2808 12.5276 15.7692 12.4865 16.6696C12.442 17.6431 12.4327 17.9351 12.4327 20.3997C12.4327 22.8643 12.442 23.1564 12.4865 24.1298C12.5276 25.0302 12.6778 25.5186 12.8045 25.8442C12.9522 26.2445 13.188 26.6078 13.4943 26.9057C13.7922 27.212 14.1555 27.4478 14.5558 27.5955C14.8814 27.7222 15.3698 27.8724 16.2702 27.9136C17.2437 27.958 17.5348 27.9673 20.0003 27.9673C22.4658 27.9673 22.7569 27.958 23.7304 27.9136C24.6308 27.8724 25.1192 27.7222 25.4448 27.5955C25.8753 27.4277 26.1832 27.2288 26.5063 26.9057C26.8126 26.6078 27.0484 26.2445 27.1961 25.8442C27.3228 25.5186 27.473 25.0302 27.5142 24.1298C27.5586 23.1564 27.5679 22.8643 27.5679 20.3997C27.5679 17.9351 27.5586 17.6431 27.5142 16.6696C27.473 15.7692 27.3228 15.2808 27.1961 14.9552C27.0283 14.5248 26.8294 14.2168 26.5063 13.8937C26.2084 13.5875 25.8456 13.3518 25.4448 13.2039C25.1192 13.0772 24.6308 12.927 23.7304 12.8859ZM18.8213 23.2453C19.4797 23.5194 20.2129 23.5564 20.8956 23.35C21.5783 23.1435 22.1682 22.7065 22.5645 22.1135C22.9607 21.5205 23.1388 20.8083 23.0683 20.0985C22.9978 19.3888 22.6831 18.7256 22.1779 18.2221C21.8559 17.9003 21.4665 17.6538 21.0378 17.5005C20.6091 17.3473 20.1517 17.2909 19.6986 17.3356C19.2455 17.3803 18.808 17.5249 18.4175 17.759C18.027 17.9931 17.6932 18.3108 17.4403 18.6894C17.1873 19.0679 17.0214 19.4979 16.9546 19.9482C16.8877 20.3986 16.9215 20.8581 17.0536 21.2939C17.1857 21.7296 17.4127 22.1306 17.7184 22.468C18.024 22.8055 18.4007 23.0709 18.8213 23.2453ZM16.6453 17.0448C17.0859 16.6042 17.609 16.2547 18.1846 16.0162C18.7603 15.7778 19.3772 15.6551 20.0003 15.6551C20.6234 15.6551 21.2404 15.7778 21.816 16.0162C22.3916 16.2547 22.9147 16.6042 23.3553 17.0448C23.7958 17.4853 24.1453 18.0084 24.3838 18.584C24.6222 19.1597 24.7449 19.7766 24.7449 20.3997C24.7449 21.0228 24.6222 21.6398 24.3838 22.2154C24.1453 22.7911 23.7958 23.3141 23.3553 23.7547C22.4655 24.6445 21.2587 25.1444 20.0003 25.1444C18.7419 25.1444 17.5351 24.6445 16.6453 23.7547C15.7555 22.8649 15.2557 21.6581 15.2557 20.3997C15.2557 19.1414 15.7555 17.9345 16.6453 17.0448ZM25.7972 16.3617C25.9064 16.2587 25.9938 16.1348 26.0543 15.9975C26.1147 15.8601 26.147 15.712 26.1492 15.5619C26.1514 15.4118 26.1234 15.2628 26.067 15.1238C26.0106 14.9847 25.9268 14.8583 25.8207 14.7522C25.7146 14.6461 25.5882 14.5623 25.4491 14.5059C25.3101 14.4495 25.1611 14.4215 25.011 14.4237C24.8609 14.4259 24.7128 14.4582 24.5754 14.5186C24.4381 14.5791 24.3142 14.6665 24.2112 14.7757C24.0109 14.988 23.9013 15.27 23.9055 15.5619C23.9098 15.8538 24.0276 16.1325 24.234 16.3389C24.4404 16.5453 24.7191 16.6631 25.011 16.6674C25.3029 16.6716 25.5849 16.562 25.7972 16.3617Z" fill="#F5F8FB"/>
</svg>
