<svg width="42" height="52" viewBox="0 0 42 52" fill="none" xmlns="http://www.w3.org/2000/svg">
<path fill-rule="evenodd" clip-rule="evenodd" d="M21 5.24327C11.9793 5.24327 4.66667 12.5559 4.66667 21.5766C4.66667 27.9695 8.02506 31.4515 12.2912 35.0299C12.7377 35.4045 13.2018 35.7839 13.676 36.1717C16.202 38.2371 19.0154 40.5376 21 43.5841C22.9846 40.5376 25.798 38.2371 28.324 36.1717C28.7982 35.7839 29.2623 35.4045 29.7088 35.0299C33.9749 31.4515 37.3333 27.9695 37.3333 21.5766C37.3333 12.5559 30.0207 5.24327 21 5.24327ZM0 21.5766C0 9.97862 9.40202 0.576599 21 0.576599C32.598 0.576599 42 9.97862 42 21.5766C42 30.1597 37.1917 34.8443 32.7078 38.6053C32.2339 39.0028 31.769 39.3876 31.3153 39.7632C27.3012 43.0858 24.1572 45.6881 23.288 50.0342C23.0699 51.1249 22.1123 51.9099 21 51.9099C19.8877 51.9099 18.9301 51.1249 18.712 50.0342C17.8428 45.6881 14.6988 43.0858 10.6847 39.7632C10.231 39.3876 9.7661 39.0028 9.29216 38.6053C4.80827 34.8443 0 30.1597 0 21.5766ZM21 16.9099C18.4227 16.9099 16.3333 18.9993 16.3333 21.5766C16.3333 24.1539 18.4227 26.2433 21 26.2433C23.5773 26.2433 25.6667 24.1539 25.6667 21.5766C25.6667 18.9993 23.5773 16.9099 21 16.9099ZM11.6667 21.5766C11.6667 16.4219 15.8453 12.2433 21 12.2433C26.1547 12.2433 30.3333 16.4219 30.3333 21.5766C30.3333 26.7313 26.1547 30.9099 21 30.9099C15.8453 30.9099 11.6667 26.7313 11.6667 21.5766Z" fill="white"/>
</svg>
