<svg width="21" height="12" viewBox="0 0 21 12" fill="none" xmlns="http://www.w3.org/2000/svg">
<path d="M10.5 11.9609C10.1094 11.9609 9.75391 11.8047 9.43359 11.4922L0.515625 2.36328C0.382813 2.23828 0.28125 2.09766 0.210938 1.94141C0.148438 1.77734 0.117188 1.60156 0.117188 1.41406C0.117188 1.15625 0.175781 0.921875 0.292969 0.710938C0.417969 0.5 0.582031 0.335938 0.785156 0.21875C0.988281 0.09375 1.21875 0.03125 1.47656 0.03125C1.85156 0.03125 2.17969 0.171875 2.46094 0.453125L11.0742 9.27734H9.9375L18.5391 0.453125C18.8203 0.171875 19.1484 0.03125 19.5234 0.03125C19.7812 0.03125 20.0117 0.09375 20.2148 0.21875C20.418 0.335938 20.5781 0.5 20.6953 0.710938C20.8203 0.921875 20.8828 1.15625 20.8828 1.41406C20.8828 1.78125 20.75 2.09766 20.4844 2.36328L11.5664 11.4922C11.418 11.6484 11.2539 11.7656 11.0742 11.8438C10.8945 11.9219 10.7031 11.9609 10.5 11.9609Z" fill="#F5F8FB"/>
</svg>
