<svg width="49" height="49" viewBox="0 0 49 49" fill="none" xmlns="http://www.w3.org/2000/svg">
<path fill-rule="evenodd" clip-rule="evenodd" d="M12.112 5.78846C11.4499 5.45354 10.6679 5.45354 10.0057 5.78846C9.75673 5.91441 9.4463 6.18336 8.07658 7.55308L7.70877 7.92089C6.40159 9.22807 6.04925 9.60612 5.76759 10.1075C5.44113 10.6887 5.16762 11.7404 5.16961 12.407C5.17137 13.0001 5.25894 13.3573 5.64454 14.7159C7.54762 21.4209 11.1377 27.7484 16.4211 33.0318C21.7045 38.3152 28.032 41.9053 34.737 43.8084C36.0956 44.194 36.4528 44.2816 37.046 44.2833C37.7125 44.2853 38.7643 44.0118 39.3454 43.6853C39.8468 43.4037 40.2249 43.0513 41.532 41.7442L41.8999 41.3764C43.2696 40.0066 43.5385 39.6962 43.6645 39.4472C43.9994 38.785 43.9994 38.0031 43.6645 37.3409C43.5385 37.0919 43.2696 36.7815 41.8999 35.4117L43.5498 33.7618L41.8998 35.4117L41.4452 34.9571C40.5452 34.0571 40.3428 33.8728 40.1894 33.7731C39.4161 33.2702 38.419 33.2702 37.6457 33.7731C37.4923 33.8728 37.2899 34.0571 36.3899 34.957C36.3722 34.9748 36.354 34.9931 36.3353 35.0118C36.1259 35.222 35.8608 35.488 35.5425 35.716L34.184 33.8189L35.5425 35.716C34.4062 36.5296 32.8614 36.793 31.5196 36.4019C31.1454 36.2928 30.8374 36.1443 30.5978 36.0288C30.5788 36.0197 30.5603 36.0108 30.5422 36.0021C26.9256 34.2657 23.5383 31.8995 20.5459 28.907C17.5535 25.9146 15.1873 22.5273 13.4508 18.9107C13.4422 18.8926 13.4332 18.8741 13.4241 18.8552C13.3086 18.6156 13.1601 18.3075 13.051 17.9333L15.2911 17.2803L13.051 17.9333C12.6599 16.5916 12.9233 15.0468 13.737 13.9105L13.737 13.9105C13.9649 13.5921 14.231 13.327 14.4411 13.1176C14.4598 13.099 14.4781 13.0808 14.4959 13.063C15.3959 12.163 15.5802 11.9606 15.6799 11.8073L15.6799 11.8073C16.1827 11.0339 16.1827 10.0369 15.6799 9.26351C15.5802 9.11013 15.3959 8.90776 14.4959 8.00777L14.0412 7.55308C12.6715 6.18336 12.361 5.91441 12.112 5.78846ZM7.89946 1.62416C9.88593 0.61942 12.2319 0.619418 14.2183 1.62416C15.2277 2.13471 16.104 3.01324 17.1177 4.02954C17.1914 4.10341 17.2658 4.17801 17.341 4.25325L17.7957 4.70794C17.8453 4.75752 17.8944 4.80655 17.943 4.8551C18.6119 5.52284 19.1881 6.09803 19.5923 6.71975L17.6361 7.99163L19.5923 6.71975C21.1008 9.03987 21.1008 12.0309 19.5923 14.351C19.1881 14.9727 18.6119 15.5479 17.943 16.2157C17.8944 16.2642 17.8453 16.3132 17.7957 16.3628C17.6613 16.4972 17.5927 16.5662 17.545 16.6167C17.5441 16.6205 17.5432 16.6247 17.5425 16.6293C17.5416 16.6343 17.541 16.639 17.5405 16.6432C17.5482 16.6603 17.5586 16.6829 17.573 16.7133C17.5954 16.761 17.6217 16.8159 17.6578 16.8909C19.1693 20.0392 21.2308 22.9923 23.8457 25.6072C26.4607 28.2221 29.4137 30.2836 32.562 31.7952L31.5521 33.8986L32.562 31.7952C32.637 31.8312 32.6919 31.8575 32.7396 31.88C32.7701 31.8943 32.7927 31.9047 32.8097 31.9124C32.8139 31.912 32.8186 31.9113 32.8237 31.9105C32.8282 31.9097 32.8324 31.9088 32.8362 31.908C32.8868 31.8602 32.9557 31.7916 33.0901 31.6572C33.1397 31.6076 33.1887 31.5585 33.2373 31.5099C33.905 30.841 34.4802 30.2648 35.1019 29.8606C37.422 28.3521 40.4131 28.3521 42.7332 29.8606C43.3549 30.2648 43.9301 30.841 44.5978 31.5099C44.6464 31.5585 44.6954 31.6076 44.745 31.6572L43.0951 33.3071L44.745 31.6572L45.1997 32.1119C45.2749 32.1871 45.3495 32.2616 45.4234 32.3352C46.4397 33.3489 47.3182 34.2252 47.8288 35.2346C48.8335 37.2211 48.8335 39.567 47.8288 41.5535C47.3182 42.5629 46.4397 43.4392 45.4234 44.4529C45.3495 44.5266 45.2749 44.601 45.1997 44.6762L44.8319 45.044C44.7786 45.0973 44.726 45.15 44.6739 45.2021C43.5883 46.2888 42.7558 47.1221 41.631 47.754C40.3478 48.4748 38.5039 48.9544 37.0321 48.95C35.7443 48.9462 34.8052 48.6793 33.5942 48.3351C33.5508 48.3227 33.507 48.3103 33.4628 48.2977C26.012 46.183 18.9818 42.1921 13.1213 36.3317C7.2608 30.4712 3.26998 23.441 1.15521 15.9901C1.14267 15.9459 1.13022 15.9022 1.11787 15.8587C0.773692 14.6477 0.506789 13.7086 0.502959 12.4209C0.498579 10.9491 0.978093 9.10516 1.69893 7.82196L1.69893 7.82195C2.3308 6.69713 3.16416 5.86463 4.25086 4.77903C4.30297 4.72697 4.35566 4.67434 4.40894 4.62106L4.77675 4.25325C4.85199 4.17801 4.9264 4.10341 5.00009 4.02953C6.01378 3.01324 6.89007 2.13471 7.89946 1.62417L8.94067 3.68272L7.89946 1.62416Z" fill="white"/>
</svg>
