<svg width="24" height="24" viewBox="0 0 24 24" fill="none" xmlns="http://www.w3.org/2000/svg">
<path d="M12 2.76929C17.0979 2.76929 21.2313 6.90188 21.2314 11.9998C21.2314 17.0978 17.098 21.2312 12 21.2312C6.90212 21.231 2.76953 17.0977 2.76953 11.9998C2.76969 6.90198 6.90223 2.76945 12 2.76929ZM15.7734 8.32593C15.4262 8.33205 14.8935 8.51753 12.3301 9.58374C11.4322 9.95719 9.6379 10.7298 6.94727 11.9021C6.51053 12.0758 6.28081 12.2457 6.25977 12.4119C6.21976 12.731 6.67975 12.8304 7.25781 13.0183C7.729 13.1715 8.36272 13.3509 8.69238 13.3582C8.99133 13.3646 9.32499 13.241 9.69336 12.988C12.2043 11.2931 13.5024 10.4354 13.5869 10.4148C13.6444 10.4018 13.7243 10.3854 13.7783 10.4333C13.8322 10.4812 13.827 10.5719 13.8213 10.5964C13.7756 10.7912 11.4171 12.9371 11.2783 13.0808C10.7589 13.6203 10.1677 13.9509 11.0791 14.5515C11.8674 15.071 12.3266 15.402 13.1387 15.9343C13.6579 16.2747 14.0655 16.679 14.6016 16.6296C14.8481 16.6068 15.103 16.3747 15.2324 15.6833C15.5382 14.0486 16.1394 10.5063 16.2783 9.04663C16.2905 8.91887 16.275 8.7553 16.2627 8.68335C16.2504 8.61151 16.2242 8.50912 16.1309 8.43335C16.0203 8.34368 15.8498 8.32458 15.7734 8.32593Z" fill="#F5F8FB"/>
</svg>
