<svg width="24" height="24" viewBox="0 0 24 24" fill="none" xmlns="http://www.w3.org/2000/svg">
<path d="M19.8645 2.76929H4.13251C3.37891 2.76929 2.76953 3.36424 2.76953 4.09982V19.8967C2.76953 20.6323 3.37891 21.2308 4.13251 21.2308H19.8645C20.6181 21.2308 21.2311 20.6323 21.2311 19.9003V4.09982C21.2311 3.36424 20.6181 2.76929 19.8645 2.76929ZM8.2467 18.5013H5.50631V9.68876H8.2467V18.5013ZM6.8765 8.48804C5.9967 8.48804 5.28636 7.7777 5.28636 6.9015C5.28636 6.0253 5.9967 5.31496 6.8765 5.31496C7.75271 5.31496 8.46304 6.0253 8.46304 6.9015C8.46304 7.7741 7.75271 8.48804 6.8765 8.48804ZM18.5015 18.5013H15.7647V14.2176C15.7647 13.1972 15.7467 11.8811 14.3404 11.8811C12.9162 11.8811 12.6998 12.9953 12.6998 14.1455V18.5013H9.96665V9.68876H12.5916V10.8931H12.6277C12.9919 10.2008 13.8861 9.46881 15.2167 9.46881C17.9895 9.46881 18.5015 11.2933 18.5015 13.6659V18.5013Z" fill="#F5F8FB"/>
</svg>
