<svg width="24" height="24" viewBox="0 0 24 24" fill="none" xmlns="http://www.w3.org/2000/svg">
<path d="M23.2523 5.92188C23.0312 4.75354 21.9776 3.90271 20.7549 3.63708C18.9253 3.26562 15.5391 3 11.8755 3C8.21396 3 4.77359 3.26562 2.94177 3.63708C1.72127 3.90271 0.665529 4.69959 0.444408 5.92188C0.22112 7.25 0 9.10938 0 11.5C0 13.8906 0.22112 15.75 0.498605 17.0781C0.721892 18.2465 1.77547 19.0973 2.99596 19.3629C4.93835 19.7344 8.26816 20 11.9318 20C15.5955 20 18.9253 19.7344 20.8677 19.3629C22.0882 19.0973 23.1417 18.3004 23.365 17.0781C23.5862 15.75 23.8636 13.8367 23.92 11.5C23.8073 9.10938 23.5298 7.25 23.2523 5.92188ZM8.87949 15.2188V7.78125L15.6497 11.5L8.87949 15.2188Z" fill="#F5F8FB"/>
</svg>
