<svg width="24" height="24" viewBox="0 0 24 24" fill="none" xmlns="http://www.w3.org/2000/svg">
<path fill-rule="evenodd" clip-rule="evenodd" d="M13.2532 20.5038C17.4249 19.8391 20.6133 16.2249 20.6133 11.8661C20.6133 7.03521 16.6971 3.11902 11.8662 3.11902C7.03533 3.11902 3.11914 7.03521 3.11914 11.8661C3.11914 16.2249 6.30741 19.8391 10.4791 20.5038C10.4711 20.4837 10.4666 20.4617 10.4666 20.4388V14.4908C10.4666 14.3942 10.3883 14.3158 10.2917 14.3158H8.54228C8.44566 14.3158 8.36734 14.2375 8.36734 14.1409V12.0416C8.36734 11.945 8.44566 11.8667 8.54228 11.8667H10.2917C10.3883 11.8667 10.4666 11.7883 10.4666 11.6917V9.41748C10.4666 8.36783 11.5863 6.61842 13.2657 6.61842H15.54C15.6366 6.61842 15.7149 6.69674 15.7149 6.79336V8.89265C15.7149 8.98927 15.6365 9.06759 15.5399 9.06759H14.4903C14.1404 9.06759 13.2657 9.41748 13.2657 10.1172V11.6918C13.2657 11.7884 13.344 11.8667 13.4406 11.8667H15.19C15.2867 11.8667 15.365 11.945 15.365 12.0416V14.1409C15.365 14.2375 15.2867 14.3158 15.19 14.3158H13.4406C13.344 14.3158 13.2657 14.3942 13.2657 14.4908V20.4388C13.2657 20.4617 13.2613 20.4837 13.2532 20.5038Z" fill="#F5F8FB"/>
</svg>
