<svg width="24" height="24" viewBox="0 0 24 24" fill="none" xmlns="http://www.w3.org/2000/svg">
<path d="M19.6441 6.17993C20.5012 5.64375 21.1425 4.79948 21.4483 3.80474C20.6429 4.3048 19.7618 4.65705 18.8429 4.84626C17.569 3.43608 15.5505 3.09291 13.9155 4.0085C12.2804 4.92409 11.4335 6.87177 11.848 8.76323C8.54901 8.58991 5.47544 6.95924 3.3921 4.27698C2.30485 6.23938 2.86046 8.748 4.66182 10.0098C4.01043 9.98794 3.37348 9.80338 2.80409 9.47158C2.80409 9.48959 2.80409 9.5076 2.80409 9.52561C2.80447 11.5698 4.18125 13.3306 6.09599 13.7357C5.49179 13.9077 4.85802 13.9331 4.24304 13.8098C4.78153 15.5579 6.32121 16.7555 8.07611 16.7912C6.62265 17.985 4.82769 18.6323 2.98002 18.6292C2.65252 18.6297 2.32528 18.6099 2 18.5701C3.87627 19.8318 6.06002 20.5015 8.29028 20.4991C11.3931 20.5214 14.375 19.2414 16.569 16.9453C18.763 14.6493 19.986 11.5289 19.9644 8.28198C19.9644 8.09589 19.9603 7.9108 19.952 7.72671C20.7556 7.119 21.4491 6.36617 22 5.50359C21.2514 5.85083 20.4573 6.0788 19.6441 6.17993Z" fill="#F5F8FB"/>
</svg>
