<svg width="24" height="24" viewBox="0 0 24 24" fill="none" xmlns="http://www.w3.org/2000/svg">
<path fill-rule="evenodd" clip-rule="evenodd" d="M8.19471 2.82467C9.17904 2.77936 9.49289 2.76929 12.0003 2.76929C14.5077 2.76929 14.8216 2.7802 15.8051 2.82467C16.7886 2.86915 17.4599 3.02607 18.0473 3.25348C18.6624 3.48593 19.2204 3.84929 19.682 4.31922C20.1519 4.77992 20.5144 5.33712 20.746 5.95306C20.9743 6.54048 21.1304 7.21181 21.1757 8.19362C21.221 9.17964 21.2311 9.49348 21.2311 12.0001C21.2311 14.5075 21.2202 14.8213 21.1757 15.8057C21.1312 16.7875 20.9743 17.4588 20.746 18.0462C20.5144 18.6622 20.1513 19.2204 19.682 19.6817C19.2204 20.1517 18.6624 20.5142 18.0473 20.7458C17.4599 20.974 16.7886 21.1301 15.8067 21.1754C14.8216 21.2208 14.5077 21.2308 12.0003 21.2308C9.49289 21.2308 9.17904 21.2199 8.19471 21.1754C7.21289 21.131 6.54156 20.974 5.95415 20.7458C5.33814 20.5142 4.78001 20.151 4.31862 19.6817C3.84901 19.2208 3.4856 18.6629 3.25373 18.0471C3.02631 17.4596 2.87023 16.7883 2.82492 15.8065C2.7796 14.8205 2.76953 14.5066 2.76953 12.0001C2.76953 9.49265 2.78044 9.1788 2.82492 8.1953C2.86939 7.21181 3.02631 6.54048 3.25373 5.95306C3.48594 5.33719 3.84963 4.77934 4.31946 4.31838C4.78019 3.84887 5.33776 3.48546 5.95331 3.25348C6.54072 3.02607 7.21205 2.86999 8.19387 2.82467H8.19471ZM15.7304 4.48621C14.7569 4.44173 14.4649 4.4325 12.0003 4.4325C9.53569 4.4325 9.24366 4.44173 8.27023 4.48621C7.36981 4.52733 6.88142 4.67754 6.55583 4.80425C6.12534 4.97208 5.81736 5.17097 5.49429 5.49404C5.18803 5.79199 4.95234 6.1547 4.8045 6.55558C4.67778 6.88118 4.52757 7.36957 4.48645 8.26999C4.44198 9.24341 4.43275 9.53544 4.43275 12.0001C4.43275 14.4647 4.44198 14.7567 4.48645 15.7301C4.52757 16.6305 4.67778 17.1189 4.8045 17.4445C4.95219 17.8448 5.18799 18.2082 5.49429 18.5061C5.79219 18.8124 6.15555 19.0482 6.55583 19.1959C6.88142 19.3226 7.36981 19.4728 8.27023 19.5139C9.24366 19.5584 9.53485 19.5676 12.0003 19.5676C14.4658 19.5676 14.7569 19.5584 15.7304 19.5139C16.6308 19.4728 17.1192 19.3226 17.4448 19.1959C17.8753 19.028 18.1832 18.8292 18.5063 18.5061C18.8126 18.2082 19.0484 17.8448 19.1961 17.4445C19.3228 17.1189 19.473 16.6305 19.5142 15.7301C19.5586 14.7567 19.5679 14.4647 19.5679 12.0001C19.5679 9.53544 19.5586 9.24341 19.5142 8.26999C19.473 7.36957 19.3228 6.88118 19.1961 6.55558C19.0283 6.12509 18.8294 5.81712 18.5063 5.49404C18.2084 5.18781 17.8456 4.95212 17.4448 4.80425C17.1192 4.67754 16.6308 4.52733 15.7304 4.48621ZM10.8213 14.8457C11.4797 15.1197 12.2129 15.1567 12.8956 14.9503C13.5783 14.7439 14.1682 14.3068 14.5645 13.7138C14.9607 13.1208 15.1388 12.4086 15.0683 11.6989C14.9978 10.9892 14.6831 10.3259 14.1779 9.82243C13.8559 9.5006 13.4665 9.25417 13.0378 9.10088C12.6091 8.94759 12.1517 8.89127 11.6986 8.93596C11.2455 8.98065 10.808 9.12524 10.4175 9.35933C10.027 9.59341 9.69323 9.91117 9.44028 10.2897C9.18732 10.6683 9.02144 11.0982 8.95458 11.5486C8.88772 11.9989 8.92155 12.4585 9.05362 12.8942C9.1857 13.3299 9.41273 13.7309 9.71839 14.0684C10.024 14.4058 10.4007 14.6713 10.8213 14.8457ZM8.64534 8.64509C9.08592 8.20451 9.60896 7.85502 10.1846 7.61658C10.7603 7.37814 11.3772 7.25542 12.0003 7.25542C12.6234 7.25542 13.2404 7.37814 13.816 7.61658C14.3916 7.85502 14.9147 8.20451 15.3553 8.64509C15.7958 9.08567 16.1453 9.60872 16.3838 10.1844C16.6222 10.76 16.7449 11.377 16.7449 12.0001C16.7449 12.6231 16.6222 13.2401 16.3838 13.8158C16.1453 14.3914 15.7958 14.9144 15.3553 15.355C14.4655 16.2448 13.2587 16.7447 12.0003 16.7447C10.7419 16.7447 9.53513 16.2448 8.64534 15.355C7.75554 14.4652 7.25566 13.2584 7.25566 12.0001C7.25566 10.7417 7.75554 9.53488 8.64534 8.64509ZM17.7972 7.96202C17.9064 7.85902 17.9938 7.73517 18.0543 7.5978C18.1147 7.46042 18.147 7.31231 18.1492 7.16224C18.1514 7.01216 18.1234 6.86317 18.067 6.72409C18.0106 6.58501 17.9268 6.45867 17.8207 6.35254C17.7146 6.24641 17.5882 6.16265 17.4491 6.10623C17.3101 6.0498 17.1611 6.02185 17.011 6.02404C16.8609 6.02623 16.7128 6.05851 16.5754 6.11896C16.4381 6.17942 16.3142 6.26682 16.2112 6.376C16.0109 6.58833 15.9013 6.87037 15.9055 7.16224C15.9098 7.4541 16.0276 7.73282 16.234 7.93923C16.4404 8.14563 16.7191 8.26347 17.011 8.26772C17.3029 8.27198 17.5849 8.16231 17.7972 7.96202Z" fill="#F5F8FB"/>
</svg>
