<svg width="24" height="24" viewBox="0 0 24 24" fill="none" xmlns="http://www.w3.org/2000/svg">
<path d="M19.0333 2.76929H4.96733C3.75547 2.76929 2.76953 3.75522 2.76953 4.96709V19.033C2.76953 20.2449 3.75547 21.2308 4.96733 21.2308H19.0333C20.2451 21.2308 21.2311 20.2449 21.2311 19.033V4.96709C21.2311 3.75522 20.2451 2.76929 19.0333 2.76929ZM17.2777 10.8234C17.1779 10.8326 17.0768 10.8387 16.9744 10.8387C15.8214 10.8387 14.8082 10.2458 14.2188 9.34951C14.2188 11.7007 14.2188 14.3759 14.2188 14.4207C14.2188 16.4906 12.5405 18.1688 10.4706 18.1688C8.40074 18.1688 6.7225 16.4906 6.7225 14.4207C6.7225 12.3508 8.40074 10.6726 10.4706 10.6726C10.5489 10.6726 10.6254 10.6796 10.7023 10.6845V12.5315C10.6254 12.5223 10.5498 12.5082 10.4706 12.5082C9.41393 12.5082 8.55766 13.3645 8.55766 14.4212C8.55766 15.4779 9.41393 16.3341 10.4706 16.3341C11.5273 16.3341 12.4605 15.5016 12.4605 14.4449C12.4605 14.4031 12.479 5.83214 12.479 5.83214H14.2443C14.4104 7.41061 15.6847 8.65632 17.2777 8.77061V10.8234Z" fill="#F5F8FB"/>
</svg>
