<svg width="16" height="17" viewBox="0 0 16 17" fill="none" xmlns="http://www.w3.org/2000/svg">
<path fill-rule="evenodd" clip-rule="evenodd" d="M3.00033 1.09448C3.36852 1.09448 3.66699 1.39296 3.66699 1.76115V2.76115H4.66699C5.03518 2.76115 5.33366 3.05963 5.33366 3.42782C5.33366 3.79601 5.03518 4.09448 4.66699 4.09448H3.66699V5.09448C3.66699 5.46267 3.36852 5.76115 3.00033 5.76115C2.63214 5.76115 2.33366 5.46267 2.33366 5.09448V4.09448H1.33366C0.965469 4.09448 0.666992 3.79601 0.666992 3.42782C0.666992 3.05963 0.965469 2.76115 1.33366 2.76115H2.33366V1.76115C2.33366 1.39296 2.63214 1.09448 3.00033 1.09448ZM8.66699 1.76115C8.94284 1.76115 9.1902 1.93103 9.28922 2.1885L10.4453 5.1944C10.6456 5.7151 10.7085 5.86515 10.7946 5.98621C10.881 6.10768 10.9871 6.21381 11.1086 6.30018C11.2297 6.38627 11.3797 6.4492 11.9004 6.64947L14.9063 7.80558C15.1638 7.90461 15.3337 8.15197 15.3337 8.42782C15.3337 8.70366 15.1638 8.95102 14.9063 9.05005L11.9004 10.2062C11.3797 10.4064 11.2297 10.4694 11.1086 10.5554C10.9871 10.6418 10.881 10.7479 10.7946 10.8694C10.7085 10.9905 10.6456 11.1405 10.4453 11.6612L9.28922 14.6671C9.1902 14.9246 8.94284 15.0945 8.66699 15.0945C8.39115 15.0945 8.14379 14.9246 8.04476 14.6671L6.88864 11.6612C6.68838 11.1405 6.62544 10.9905 6.53936 10.8694C6.45299 10.7479 6.34686 10.6418 6.22539 10.5554C6.10432 10.4694 5.95428 10.4064 5.43358 10.2062L2.42767 9.05005C2.17021 8.95102 2.00033 8.70366 2.00033 8.42782C2.00033 8.15197 2.17021 7.90461 2.42767 7.80558L5.43358 6.64947C5.95428 6.4492 6.10432 6.38627 6.22539 6.30018C6.34686 6.21381 6.45299 6.10768 6.53936 5.98621C6.62544 5.86515 6.68837 5.7151 6.88864 5.1944L8.04476 2.1885C8.14378 1.93103 8.39114 1.76115 8.66699 1.76115ZM8.66699 4.28493L8.1331 5.67304C8.12426 5.69603 8.11555 5.71871 8.10695 5.7411C7.94457 6.16394 7.82191 6.48335 7.626 6.75887C7.45325 7.00181 7.24099 7.21407 6.99805 7.38682C6.72253 7.58273 6.40312 7.70539 5.98028 7.86778C5.95789 7.87638 5.9352 7.88509 5.91222 7.89393L4.52411 8.42782L5.91222 8.9617C5.9352 8.97054 5.95789 8.97925 5.98028 8.98785C6.40312 9.15024 6.72253 9.2729 6.99805 9.46881C7.24099 9.64156 7.45325 9.85382 7.626 10.0968C7.8219 10.3723 7.94457 10.6917 8.10695 11.1145C8.11555 11.1369 8.12426 11.1596 8.1331 11.1826L8.66699 12.5707L9.20088 11.1826C9.20972 11.1596 9.21843 11.1369 9.22703 11.1145C9.38941 10.6917 9.51208 10.3723 9.70799 10.0968C9.88073 9.85382 10.093 9.64156 10.3359 9.46881C10.6115 9.2729 10.9309 9.15024 11.3537 8.98785C11.3761 8.97925 11.3988 8.97054 11.4218 8.9617L12.8099 8.42782L11.4218 7.89393C11.3988 7.88509 11.3761 7.87637 11.3537 7.86777C10.9309 7.70539 10.6115 7.58273 10.3359 7.38682C10.093 7.21407 9.88073 7.00181 9.70799 6.75887C9.51208 6.48335 9.38941 6.16394 9.22703 5.7411C9.21843 5.71871 9.20972 5.69603 9.20088 5.67304L8.66699 4.28493ZM3.00033 11.0945C3.36852 11.0945 3.66699 11.393 3.66699 11.7611V12.7611H4.66699C5.03518 12.7611 5.33366 13.0596 5.33366 13.4278C5.33366 13.796 5.03518 14.0945 4.66699 14.0945H3.66699V15.0945C3.66699 15.4627 3.36852 15.7611 3.00033 15.7611C2.63214 15.7611 2.33366 15.4627 2.33366 15.0945V14.0945H1.33366C0.965469 14.0945 0.666992 13.796 0.666992 13.4278C0.666992 13.0596 0.965469 12.7611 1.33366 12.7611H2.33366V11.7611C2.33366 11.393 2.63214 11.0945 3.00033 11.0945Z" fill="#E7F1FD" fill-opacity="0.49"/>
</svg>
