<svg width="24" height="20" viewBox="0 0 24 20" fill="none" xmlns="http://www.w3.org/2000/svg">
<path d="M23.5468 0.822634C23.1374 0.514418 22.4944 0.470318 21.8295 0.707295H21.8285C21.1292 0.956388 2.03537 8.22758 1.25808 8.52465C1.11671 8.56826 -0.118008 8.97728 0.00917513 9.88836C0.122712 10.7098 1.11507 11.05 1.23625 11.0892L6.0905 12.5649C6.41255 13.5167 7.59977 17.0282 7.86233 17.7784C8.02608 18.2461 8.293 18.8606 8.7608 18.987C9.17128 19.1276 9.57957 18.9992 9.84376 18.815L12.8116 16.3711L17.6025 19.6883L17.7166 19.7489C18.0419 19.8768 18.3536 19.9408 18.6511 19.9408C18.8809 19.9408 19.1014 19.9025 19.3121 19.8259C20.0299 19.5642 20.317 18.957 20.347 18.8882L23.9256 2.37389C24.144 1.49189 23.8405 1.04313 23.5468 0.822634ZM10.3716 13.1552L8.73405 17.0321L7.0965 12.1859L19.6511 3.94744L10.3716 13.1552Z" fill="#F5F8FB"/>
</svg>
