<svg width="20" height="19" viewBox="0 0 20 19" fill="none" xmlns="http://www.w3.org/2000/svg">
<path d="M17.0333 0.168945H2.96733C1.75547 0.168945 0.769531 1.15488 0.769531 2.36675V16.4327C0.769531 17.6446 1.75547 18.6305 2.96733 18.6305H17.0333C18.2451 18.6305 19.2311 17.6446 19.2311 16.4327V2.36675C19.2311 1.15488 18.2451 0.168945 17.0333 0.168945ZM15.2777 8.22301C15.1779 8.23224 15.0768 8.2384 14.9744 8.2384C13.8214 8.2384 12.8082 7.64543 12.2188 6.74917C12.2188 9.10037 12.2188 11.7755 12.2188 11.8204C12.2188 13.8903 10.5405 15.5685 8.47063 15.5685C6.40074 15.5685 4.7225 13.8903 4.7225 11.8204C4.7225 9.75048 6.40074 8.07224 8.47063 8.07224C8.54887 8.07224 8.62536 8.07928 8.70228 8.08411V9.93114C8.62536 9.92191 8.54975 9.90785 8.47063 9.90785C7.41393 9.90785 6.55766 10.7641 6.55766 11.8208C6.55766 12.8775 7.41393 13.7338 8.47063 13.7338C9.52733 13.7338 10.4605 12.9013 10.4605 11.8446C10.4605 11.8028 10.479 3.2318 10.479 3.2318H12.2443C12.4104 4.81026 13.6847 6.05598 15.2777 6.17026V8.22301Z" fill="#F5F8FB"/>
</svg>
