<svg width="20" height="18" viewBox="0 0 20 18" fill="none" xmlns="http://www.w3.org/2000/svg">
<path d="M17.644 3.57996C18.5011 3.04378 19.1424 2.1995 19.4482 1.20477C18.6428 1.70482 17.7616 2.05707 16.8428 2.24629C15.5688 0.836109 13.5504 0.492936 11.9154 1.40852C10.2803 2.32411 9.43338 4.27179 9.84786 6.16325C6.54889 5.98994 3.47532 4.35926 1.39198 1.677C0.304725 3.63941 0.860336 6.14802 2.6617 7.40987C2.01031 7.38796 1.37336 7.20341 0.80397 6.8716C0.80397 6.88961 0.80397 6.90762 0.80397 6.92563C0.804347 8.96981 2.18113 10.7306 4.09587 11.1357C3.49167 11.3078 2.8579 11.3331 2.24292 11.2098C2.78141 12.9579 4.32109 14.1555 6.07598 14.1913C4.62253 15.385 2.82756 16.0324 0.979895 16.0292C0.652398 16.0297 0.325158 16.01 -0.00012207 15.9702C1.87615 17.2318 4.05989 17.9015 6.29015 17.8991C9.39298 17.9214 12.3749 16.6414 14.5689 14.3454C16.7629 12.0493 17.9859 8.92888 17.9643 5.68201C17.9643 5.49592 17.9602 5.31082 17.9519 5.12673C18.7554 4.51903 19.449 3.7662 19.9999 2.90362C19.2513 3.25085 18.4572 3.47883 17.644 3.57996Z" fill="#F5F8FB"/>
</svg>
