<svg width="24" height="18" viewBox="0 0 24 18" fill="none" xmlns="http://www.w3.org/2000/svg">
<path d="M23.2522 3.32178C23.0311 2.15344 21.9775 1.30261 20.7548 1.03699C18.9252 0.665527 15.539 0.399902 11.8753 0.399902C8.21384 0.399902 4.77347 0.665527 2.94164 1.03699C1.72115 1.30261 0.665406 2.09949 0.444286 3.32178C0.220998 4.6499 -0.00012207 6.50928 -0.00012207 8.8999C-0.00012207 11.2905 0.220998 13.1499 0.498483 14.478C0.72177 15.6464 1.77534 16.4972 2.99584 16.7628C4.93823 17.1343 8.26804 17.3999 11.9317 17.3999C15.5954 17.3999 18.9252 17.1343 20.8676 16.7628C22.088 16.4972 23.1416 15.7003 23.3649 14.478C23.586 13.1499 23.8635 11.2366 23.9199 8.8999C23.8071 6.50928 23.5297 4.6499 23.2522 3.32178ZM8.87937 12.6187V5.18115L15.6496 8.8999L8.87937 12.6187Z" fill="#F5F8FB"/>
</svg>
