<svg width="22" height="25" viewBox="0 0 22 25" fill="none" xmlns="http://www.w3.org/2000/svg">
<path d="M21.3791 13.8754V17.3706C21.3791 17.4109 21.3784 17.4512 21.376 17.4915C21.3752 17.4994 21.3752 17.5081 21.3744 17.516C21.3728 17.5396 21.3712 17.5633 21.3689 17.5878C21.3665 17.6115 21.3641 17.6352 21.361 17.6589C21.3586 17.6818 21.3547 17.7047 21.3515 17.7268C21.346 17.7608 21.3404 17.794 21.3333 17.828C21.3294 17.8493 21.3246 17.8698 21.3199 17.8911C21.3152 17.9093 21.3104 17.9283 21.3057 17.9472C21.3017 17.9646 21.297 17.9812 21.2915 17.9986C21.2701 18.0752 21.2441 18.151 21.2141 18.2253C21.2077 18.2411 21.2014 18.2576 21.1943 18.2734C21.1761 18.3169 21.1564 18.3595 21.1351 18.4014C21.1248 18.4227 21.1137 18.4433 21.1027 18.4638L21.1019 18.463L17.1477 16.2624L10.9551 12.8154L15.6122 10.6716L21.2954 13.8296L21.3791 13.8754Z" fill="url(#paint0_linear_30446_3618)"/>
<path d="M21.3082 7.35166L20.1028 8.28056L19.0357 9.95827L8.88965 4.31062L12.7451 1.60291L15.0752 2.94886H15.076L19.3461 5.41408L20.23 5.92434C20.7742 6.23872 21.1581 6.75688 21.3082 7.35166Z" fill="url(#paint1_linear_30446_3618)"/>
<path d="M15.0761 2.94937L0.407227 11.3529V7.91377C0.407227 7.09309 0.844821 6.3348 1.55492 5.92485L9.7452 1.19662C10.4553 0.786673 11.3305 0.786673 12.0414 1.19662L15.0761 2.94937Z" fill="#0265DC"/>
<path d="M21.3786 7.91361V9.10712L2.43011 19.8645L1.55492 19.359C0.844821 18.9483 0.407227 18.1908 0.407227 17.3701V16.1789L19.347 5.41443L20.2309 5.92469C20.941 6.33464 21.3786 7.09293 21.3786 7.91361Z" fill="#0265DC"/>
<path d="M21.3796 13.7795V17.3696C21.3796 17.4098 21.3788 17.4501 21.3764 17.4904C21.3756 17.4983 21.3756 17.507 21.3748 17.5149C21.3733 17.5386 21.3717 17.5623 21.3693 17.5868C21.3669 17.6105 21.3646 17.6342 21.3614 17.6579C21.359 17.6808 21.3551 17.7037 21.3519 17.7258C21.3464 17.7598 21.3409 17.7929 21.3338 17.8269C21.3298 17.8482 21.3251 17.8688 21.3203 17.8901C21.3156 17.9083 21.3109 17.9272 21.3061 17.9462C21.3022 17.9635 21.2974 17.9801 21.2919 17.9975C21.2706 18.0741 21.2445 18.15 21.2145 18.2242C21.2082 18.24 21.2019 18.2566 21.1947 18.2724C21.1766 18.3158 21.1568 18.3585 21.1355 18.4003C21.1252 18.4217 21.1142 18.4422 21.1031 18.4627C21.0905 18.4857 21.0778 18.5086 21.0644 18.5307C21.0518 18.5536 21.0376 18.5757 21.0241 18.5978C20.9957 18.6413 20.9665 18.6847 20.9357 18.7266C20.9041 18.7692 20.8717 18.8103 20.8385 18.8498C20.8211 18.8703 20.8038 18.8901 20.7864 18.909C20.769 18.9288 20.7508 18.9477 20.7327 18.9667C20.6963 19.0046 20.6584 19.0417 20.6189 19.0765C20.6039 19.0907 20.5881 19.1041 20.5723 19.1176C20.5628 19.1255 20.5534 19.1334 20.5439 19.1413C20.5249 19.1578 20.5052 19.1736 20.4846 19.1886C20.4649 19.2044 20.4451 19.2195 20.4238 19.2337C20.3843 19.2629 20.3433 19.2905 20.3014 19.3166C20.2785 19.3308 20.2556 19.345 20.2319 19.3585L12.0424 24.0867C11.3315 24.4967 10.4563 24.4967 9.74621 24.0867L6.75098 22.3577L17.1482 16.2613L21.2959 13.8285L21.3796 13.7795Z" fill="#0265DC"/>
<path d="M4.52567 4.21008V21.074L2.43011 19.8647L1.55492 19.3592C0.844821 18.9485 0.407227 18.191 0.407227 17.3703V7.91384C0.407227 7.09315 0.844821 6.33486 1.55492 5.92492L4.52567 4.21008Z" fill="#0265DC"/>
<defs>
<linearGradient id="paint0_linear_30446_3618" x1="20.7472" y1="16.4504" x2="12.335" y2="10.6843" gradientUnits="userSpaceOnUse">
<stop stop-color="#0265DC"/>
<stop offset="1" stop-color="#0265DC" stop-opacity="0"/>
</linearGradient>
<linearGradient id="paint1_linear_30446_3618" x1="19.3635" y1="8.47171" x2="11.7411" y2="3.53495" gradientUnits="userSpaceOnUse">
<stop stop-color="#0265DC"/>
<stop offset="1" stop-color="#0265DC" stop-opacity="0"/>
</linearGradient>
</defs>
</svg>
