<svg width="25" height="25" viewBox="0 0 25 25" fill="none" xmlns="http://www.w3.org/2000/svg">
<path d="M20.3645 3.16895H4.63251C3.87891 3.16895 3.26953 3.7639 3.26953 4.49947V20.2964C3.26953 21.0319 3.87891 21.6305 4.63251 21.6305H20.3645C21.1181 21.6305 21.7311 21.0319 21.7311 20.3V4.49947C21.7311 3.7639 21.1181 3.16895 20.3645 3.16895ZM8.7467 18.9009H6.00631V10.0884H8.7467V18.9009ZM7.3765 8.8877C6.4967 8.8877 5.78636 8.17736 5.78636 7.30116C5.78636 6.42496 6.4967 5.71462 7.3765 5.71462C8.25271 5.71462 8.96304 6.42496 8.96304 7.30116C8.96304 8.17375 8.25271 8.8877 7.3765 8.8877ZM19.0015 18.9009H16.2647V14.6173C16.2647 13.5968 16.2467 12.2807 14.8404 12.2807C13.4162 12.2807 13.1998 13.3949 13.1998 14.5451V18.9009H10.4666V10.0884H13.0916V11.2927H13.1277C13.4919 10.6004 14.3861 9.86847 15.7167 9.86847C18.4895 9.86847 19.0015 11.693 19.0015 14.0656V18.9009Z" fill="#F5F8FB"/>
</svg>
