<svg xmlns="http://www.w3.org/2000/svg" xmlns:xlink="http://www.w3.org/1999/xlink"><symbol viewBox="0 0 14 14" fill="none" id="icon-author-icon" xmlns="http://www.w3.org/2000/svg"><path fill-rule="evenodd" clip-rule="evenodd" d="M7 1.66659C5.71134 1.66659 4.66667 2.71125 4.66667 3.99992C4.66667 5.28858 5.71134 6.33325 7 6.33325C8.28866 6.33325 9.33333 5.28858 9.33333 3.99992C9.33333 2.71125 8.28866 1.66659 7 1.66659ZM3.33333 3.99992C3.33333 1.97487 4.97496 0.333252 7 0.333252C9.02504 0.333252 10.6667 1.97487 10.6667 3.99992C10.6667 6.02496 9.02504 7.66659 7 7.66659C4.97496 7.66659 3.33333 6.02496 3.33333 3.99992ZM7 9.66659C5.10731 9.66659 3.42032 10.5794 2.34256 12.0058C2.27663 12.0931 2.22617 12.1599 2.1842 12.2187C2.15233 12.2633 2.13059 12.296 2.11545 12.3209C2.21453 12.3322 2.35571 12.3333 2.61816 12.3333H11.3818C11.6443 12.3333 11.7855 12.3322 11.8846 12.3209C11.8694 12.296 11.8477 12.2633 11.8158 12.2187C11.7738 12.1599 11.7234 12.0931 11.6574 12.0058C10.5797 10.5794 8.89269 9.66659 7 9.66659ZM1.27876 11.202C2.59407 9.46125 4.66592 8.33325 7 8.33325C9.33408 8.33325 11.4059 9.46125 12.7212 11.202C12.7272 11.2099 12.7332 11.2178 12.7392 11.2257C12.8522 11.3752 12.9735 11.5356 13.0602 11.6903C13.165 11.8776 13.2428 12.0942 13.238 12.3576C13.2341 12.5694 13.1699 12.7676 13.092 12.9242C13.0141 13.0807 12.8946 13.2514 12.728 13.3822C12.5058 13.5566 12.2638 13.6183 12.0489 13.6441C11.8603 13.6667 11.6369 13.6666 11.4122 13.6666C11.4021 13.6666 11.392 13.6666 11.3818 13.6666H2.61816C2.60803 13.6666 2.5979 13.6666 2.58777 13.6666C2.36311 13.6666 2.13966 13.6667 1.95109 13.6441C1.73617 13.6183 1.49423 13.5566 1.27202 13.3822C1.10539 13.2514 0.985901 13.0807 0.907984 12.9242C0.830066 12.7676 0.765903 12.5694 0.76203 12.3576C0.757212 12.0942 0.834951 11.8776 0.939841 11.6903C1.0265 11.5356 1.14776 11.3752 1.26085 11.2257C1.26684 11.2178 1.27282 11.2099 1.27876 11.202Z" fill="currentColor"/></symbol><symbol viewBox="0 0 22 25" fill="none" id="icon-binabox-icon" xmlns="http://www.w3.org/2000/svg"><path d="M21.3791 13.8754V17.3706C21.3791 17.4109 21.3784 17.4512 21.376 17.4915 21.3752 17.4994 21.3752 17.5081 21.3744 17.516 21.3728 17.5396 21.3712 17.5633 21.3689 17.5878 21.3665 17.6115 21.3641 17.6352 21.361 17.6589 21.3586 17.6818 21.3547 17.7047 21.3515 17.7268 21.346 17.7608 21.3404 17.794 21.3333 17.828 21.3294 17.8493 21.3246 17.8698 21.3199 17.8911 21.3152 17.9093 21.3104 17.9283 21.3057 17.9472 21.3017 17.9646 21.297 17.9812 21.2915 17.9986 21.2701 18.0752 21.2441 18.151 21.2141 18.2253 21.2077 18.2411 21.2014 18.2576 21.1943 18.2734 21.1761 18.3169 21.1564 18.3595 21.1351 18.4014 21.1248 18.4227 21.1137 18.4433 21.1027 18.4638L21.1019 18.463 17.1477 16.2624 10.9551 12.8154 15.6122 10.6716 21.2954 13.8296 21.3791 13.8754ZM21.3082 7.35166 20.1028 8.28056 19.0357 9.95827 8.88965 4.31062 12.7451 1.60291 15.0752 2.94886H15.076L19.3461 5.41408 20.23 5.92434C20.7742 6.23872 21.1581 6.75688 21.3082 7.35166Z" fill="currentColor"/><path d="M15.0761 2.94937.407227 11.3529V7.91377C.407227 7.09309.844821 6.3348 1.55492 5.92485L9.7452 1.19662C10.4553.786673 11.3305.786673 12.0414 1.19662L15.0761 2.94937ZM21.3786 7.91361V9.10712L2.43011 19.8645 1.55492 19.359C.844821 18.9483.407227 18.1908.407227 17.3701V16.1789L19.347 5.41443 20.2309 5.92469C20.941 6.33464 21.3786 7.09293 21.3786 7.91361ZM21.3796 13.7795V17.3696C21.3796 17.4098 21.3788 17.4501 21.3764 17.4904 21.3756 17.4983 21.3756 17.507 21.3748 17.5149 21.3733 17.5386 21.3717 17.5623 21.3693 17.5868 21.3669 17.6105 21.3646 17.6342 21.3614 17.6579 21.359 17.6808 21.3551 17.7037 21.3519 17.7258 21.3464 17.7598 21.3409 17.7929 21.3338 17.8269 21.3298 17.8482 21.3251 17.8688 21.3203 17.8901 21.3156 17.9083 21.3109 17.9272 21.3061 17.9462 21.3022 17.9635 21.2974 17.9801 21.2919 17.9975 21.2706 18.0741 21.2445 18.15 21.2145 18.2242 21.2082 18.24 21.2019 18.2566 21.1947 18.2724 21.1766 18.3158 21.1568 18.3585 21.1355 18.4003 21.1252 18.4217 21.1142 18.4422 21.1031 18.4627 21.0905 18.4857 21.0778 18.5086 21.0644 18.5307 21.0518 18.5536 21.0376 18.5757 21.0241 18.5978 20.9957 18.6413 20.9665 18.6847 20.9357 18.7266 20.9041 18.7692 20.8717 18.8103 20.8385 18.8498 20.8211 18.8703 20.8038 18.8901 20.7864 18.909 20.769 18.9288 20.7508 18.9477 20.7327 18.9667 20.6963 19.0046 20.6584 19.0417 20.6189 19.0765 20.6039 19.0907 20.5881 19.1041 20.5723 19.1176 20.5628 19.1255 20.5534 19.1334 20.5439 19.1413 20.5249 19.1578 20.5052 19.1736 20.4846 19.1886 20.4649 19.2044 20.4451 19.2195 20.4238 19.2337 20.3843 19.2629 20.3433 19.2905 20.3014 19.3166 20.2785 19.3308 20.2556 19.345 20.2319 19.3585L12.0424 24.0867C11.3315 24.4967 10.4563 24.4967 9.74621 24.0867L6.75098 22.3577 17.1482 16.2613 21.2959 13.8285 21.3796 13.7795Z" fill="currentColor"/><path d="M4.52567 4.21008V21.074L2.43011 19.8647L1.55492 19.3592C0.844821 18.9485 0.407227 18.191 0.407227 17.3703V7.91384C0.407227 7.09315 0.844821 6.33486 1.55492 5.92492L4.52567 4.21008Z" fill="currentColor"/><defs><linearGradient id="bpaint0_linear_30446_3618" x1="20.7472" y1="16.4504" x2="12.335" y2="10.6843" gradientUnits="userSpaceOnUse"><stop stop-color="currentColor"/><stop offset="1" stop-color="currentColor" stop-opacity="0"/></linearGradient><linearGradient id="bpaint1_linear_30446_3618" x1="19.3635" y1="8.47171" x2="11.7411" y2="3.53495" gradientUnits="userSpaceOnUse"><stop stop-color="currentColor"/><stop offset="1" stop-color="currentColor" stop-opacity="0"/></linearGradient></defs></symbol><symbol viewBox="0 0 188 42" fill="none" id="icon-binabox-logo" xmlns="http://www.w3.org/2000/svg"><g clip-path="url(#dclip0_30446_6619)"><path d="M35.6376 23.0674V29.007C35.6376 29.0755 35.6363 29.144 35.6322 29.2124 35.6309 29.2258 35.6309 29.2406 35.6295 29.254 35.6269 29.2943 35.6242 29.3346 35.6201 29.3762 35.6161 29.4164 35.6121 29.4567 35.6067 29.497 35.6027 29.5359 35.596 29.5748 35.5906 29.6124 35.5812 29.6701 35.5718 29.7265 35.5597 29.7842 35.553 29.8205 35.545 29.8554 35.5369 29.8916 35.5289 29.9225 35.5208 29.9547 35.5128 29.9869 35.5061 30.0164 35.498 30.0446 35.4886 30.0742 35.4524 30.2044 35.4081 30.3332 35.3571 30.4594 35.3463 30.4862 35.3356 30.5144 35.3235 30.5413 35.2926 30.6151 35.2591 30.6876 35.2228 30.7587 35.2054 30.795 35.1866 30.8299 35.1678 30.8648L35.1665 30.8634 28.447 27.1238 17.9235 21.2661 25.8376 17.6232 35.4953 22.9896 35.6376 23.0674ZM35.5195 11.9829 33.4712 13.5614 31.6578 16.4125 14.4162 6.81514 20.9678 2.2138 24.9276 4.50105H24.9289L32.1853 8.69031 33.6873 9.55742C34.6121 10.0917 35.2645 10.9722 35.5195 11.9829Z" fill="currentColor"/><path d="M24.9275 4.50101 0 18.7815V12.9373C0 11.5426.743624 10.254 1.95034 9.55738L15.8685 1.52248C17.0752.825839 18.5624.825839 19.7705 1.52248L24.9275 4.50101ZM35.6376 12.9373V14.9655L3.43758 33.246 1.95034 32.3869C.743624 31.689 0 30.4017 0 29.0071V26.9829L32.1852 8.6903 33.6872 9.55741C34.894 10.2541 35.6376 11.5426 35.6376 12.9373ZM35.6376 22.9064V29.007C35.6376 29.0755 35.6363 29.1439 35.6322 29.2124 35.6309 29.2258 35.6309 29.2406 35.6296 29.254 35.6269 29.2943 35.6242 29.3345 35.6202 29.3762 35.6161 29.4164 35.6121 29.4567 35.6067 29.497 35.6027 29.5359 35.596 29.5748 35.5906 29.6124 35.5812 29.6701 35.5718 29.7265 35.5598 29.7842 35.5531 29.8205 35.545 29.8554 35.5369 29.8916 35.5289 29.9225 35.5208 29.9547 35.5128 29.9869 35.5061 30.0164 35.498 30.0446 35.4886 30.0741 35.4524 30.2043 35.4081 30.3332 35.3571 30.4594 35.3463 30.4862 35.3356 30.5144 35.3235 30.5413 35.2927 30.6151 35.2591 30.6876 35.2229 30.7587 35.2054 30.7949 35.1866 30.8298 35.1678 30.8647 35.1463 30.9037 35.1249 30.9426 35.102 30.9802 35.0806 31.0191 35.0564 31.0567 35.0336 31.0943 34.9853 31.1681 34.9356 31.2419 34.8833 31.3131 34.8296 31.3856 34.7745 31.4553 34.7182 31.5225 34.6886 31.5574 34.6591 31.5909 34.6296 31.6231 34.6 31.6567 34.5692 31.6889 34.5383 31.7211 34.4765 31.7856 34.4121 31.8486 34.345 31.9077 34.3195 31.9319 34.2927 31.9547 34.2658 31.9775 34.2497 31.9909 34.2336 32.0043 34.2175 32.0178 34.1853 32.046 34.1517 32.0728 34.1168 32.0983 34.0833 32.1251 34.0497 32.1507 34.0135 32.1748 33.9463 32.2245 33.8765 32.2715 33.8054 32.3158 33.7665 32.3399 33.7276 32.3641 33.6873 32.3869L19.7705 40.4218C18.5624 41.1184 17.0752 41.1184 15.8685 40.4218L10.7786 37.4835 28.447 27.1238 35.4953 22.9896 35.6376 22.9064Z" fill="currentColor"/><path d="M6.99866 6.6433V35.301L3.43758 33.246L1.95034 32.3869C0.743624 31.6889 0 30.4017 0 29.0071V12.9373C0 11.5426 0.743624 10.254 1.95034 9.5574L6.99866 6.6433Z" fill="currentColor"/></g><path d="M71.072 26.528C71.072 28.2347 70.5387 29.5253 69.472 30.4 68.4267 31.2747 66.5707 31.712 63.904 31.712H53.92V11.456H63.584C65.3547 11.456 66.7307 11.648 67.712 12.032 68.7147 12.3947 69.4187 12.9387 69.824 13.664 70.2293 14.3893 70.432 15.296 70.432 16.384 70.432 17.8773 70.0693 19.04 69.344 19.872 68.64 20.6827 67.3067 21.1733 65.344 21.344V21.44C66.7947 21.5467 67.936 21.792 68.768 22.176 69.6 22.5387 70.1867 23.072 70.528 23.776 70.8907 24.48 71.072 25.3973 71.072 26.528ZM62.176 15.488H59.04V19.456H62.176C63.2213 19.456 63.9787 19.328 64.448 19.072 64.9173 18.7947 65.152 18.2613 65.152 17.472 65.152 16.704 64.9173 16.1813 64.448 15.904 63.9787 15.6267 63.2213 15.488 62.176 15.488ZM62.816 23.648H59.04V27.712H62.816C63.8613 27.712 64.6187 27.5733 65.088 27.296 65.5573 26.9973 65.792 26.4533 65.792 25.664 65.792 24.8533 65.5573 24.32 65.088 24.064 64.6187 23.7867 63.8613 23.648 62.816 23.648ZM79.0712 31.712H73.9512V11.456H79.0712V31.712ZM96.04 11.456H101.16V31.712H96.072L90.312 23.136C89.864 22.4533 89.4907 21.8773 89.192 21.408 88.8933 20.9387 88.616 20.4693 88.36 20 88.104 19.5307 87.816 18.976 87.496 18.336L87.4 18.464C87.6987 19.488 87.88 20.448 87.944 21.344 88.008 22.2187 88.04 23.072 88.04 23.904V31.712H82.92V11.456H88.008L93.768 20.032C94.216 20.6933 94.5893 21.2693 94.888 21.76 95.1867 22.2293 95.464 22.6987 95.72 23.168 95.976 23.6373 96.264 24.192 96.584 24.832L96.68 24.704C96.4667 23.808 96.3067 22.944 96.2 22.112 96.0933 21.2587 96.04 20.416 96.04 19.584V11.456ZM123.574 31.616V31.712H118.134C117.984 31.2 117.803 30.6133 117.59 29.952 117.398 29.2907 117.184 28.5867 116.95 27.84H110.038C109.611 29.3333 109.216 30.624 108.854 31.712H103.414V31.648L109.974 11.456H117.014L123.574 31.616ZM113.43 15.104C113.216 16.192 112.907 17.5147 112.502 19.072 112.096 20.6293 111.67 22.2187 111.222 23.84H115.798C115.328 22.2187 114.891 20.6293 114.486 19.072 114.08 17.5147 113.771 16.192 113.558 15.104H113.43ZM142.978 26.528C142.978 28.2347 142.445 29.5253 141.378 30.4 140.333 31.2747 138.477 31.712 135.81 31.712H125.826V11.456H135.49C137.261 11.456 138.637 11.648 139.618 12.032 140.621 12.3947 141.325 12.9387 141.73 13.664 142.136 14.3893 142.338 15.296 142.338 16.384 142.338 17.8773 141.976 19.04 141.25 19.872 140.546 20.6827 139.213 21.1733 137.25 21.344V21.44C138.701 21.5467 139.842 21.792 140.674 22.176 141.506 22.5387 142.093 23.072 142.434 23.776 142.797 24.48 142.978 25.3973 142.978 26.528ZM134.082 15.488H130.946V19.456H134.082C135.128 19.456 135.885 19.328 136.354 19.072 136.824 18.7947 137.058 18.2613 137.058 17.472 137.058 16.704 136.824 16.1813 136.354 15.904 135.885 15.6267 135.128 15.488 134.082 15.488ZM134.722 23.648H130.946V27.712H134.722C135.768 27.712 136.525 27.5733 136.994 27.296 137.464 26.9973 137.698 26.4533 137.698 25.664 137.698 24.8533 137.464 24.32 136.994 24.064 136.525 23.7867 135.768 23.648 134.722 23.648ZM145.217 21.568C145.217 18.9867 145.506 16.9387 146.081 15.424 146.679 13.9093 147.692 12.8213 149.121 12.16 150.572 11.4987 152.588 11.168 155.169 11.168 157.111 11.168 158.721 11.3493 160.001 11.712 161.281 12.0747 162.295 12.6613 163.041 13.472 163.788 14.2827 164.311 15.36 164.609 16.704 164.929 18.0267 165.09 19.648 165.09 21.568 165.09 23.5093 164.929 25.152 164.609 26.496 164.311 27.8187 163.788 28.8853 163.041 29.696 162.295 30.5067 161.281 31.0933 160.001 31.456 158.721 31.8187 157.111 32 155.169 32 153.228 32 151.618 31.8187 150.338 31.456 149.058 31.0933 148.044 30.5067 147.298 29.696 146.551 28.8853 146.017 27.8187 145.697 26.496 145.377 25.152 145.217 23.5093 145.217 21.568ZM155.169 27.52C156.535 27.52 157.559 27.3493 158.242 27.008 158.924 26.6667 159.383 26.0693 159.618 25.216 159.852 24.3413 159.969 23.1253 159.969 21.568 159.969 20.032 159.852 18.8373 159.618 17.984 159.383 17.1307 158.924 16.5333 158.242 16.192 157.559 15.8293 156.535 15.648 155.169 15.648 153.825 15.648 152.801 15.8293 152.097 16.192 151.415 16.5333 150.945 17.1307 150.689 17.984 150.455 18.8373 150.338 20.032 150.338 21.568 150.338 23.1253 150.455 24.3413 150.689 25.216 150.945 26.0693 151.415 26.6667 152.097 27.008 152.801 27.3493 153.825 27.52 155.169 27.52ZM181.351 21.376 187.271 31.712H180.871L177.191 24.544H177.095L173.415 31.712H167.015L172.935 21.376V21.216L167.399 11.456H173.703L177.095 18.496H177.191L180.583 11.456H186.887L181.351 21.216V21.376Z" fill="currentColor"/><defs><linearGradient id="dpaint0_linear_30446_6619" x1="34.5638" y1="27.4433" x2="20.2685" y2="17.6446" gradientUnits="userSpaceOnUse"><stop stop-color="currentColor"/><stop offset="1" stop-color="currentColor" stop-opacity="0"/></linearGradient><linearGradient id="dpaint1_linear_30446_6619" x1="32.2148" y1="13.8863" x2="19.2618" y2="5.49701" gradientUnits="userSpaceOnUse"><stop stop-color="currentColor"/><stop offset="1" stop-color="currentColor" stop-opacity="0"/></linearGradient><clipPath id="dclip0_30446_6619"><rect width="36" height="40" fill="currentColor" transform="translate(0 1)"/></clipPath></defs></symbol><symbol viewBox="0 0 188 43" fill="none" id="icon-binabox-logo-blue" xmlns="http://www.w3.org/2000/svg"><g clip-path="url(#cclip0_30446_3788)"><path d="M35.6376 23.4672V29.4068C35.6376 29.4753 35.6363 29.5438 35.6322 29.6122 35.6309 29.6256 35.6309 29.6404 35.6295 29.6538 35.6269 29.6941 35.6242 29.7344 35.6201 29.776 35.6161 29.8162 35.6121 29.8565 35.6067 29.8968 35.6027 29.9357 35.596 29.9746 35.5906 30.0122 35.5812 30.0699 35.5718 30.1263 35.5597 30.184 35.553 30.2203 35.545 30.2552 35.5369 30.2914 35.5289 30.3223 35.5208 30.3545 35.5128 30.3867 35.5061 30.4162 35.498 30.4444 35.4886 30.474 35.4524 30.6042 35.4081 30.733 35.3571 30.8592 35.3463 30.886 35.3356 30.9142 35.3235 30.9411 35.2926 31.0149 35.2591 31.0874 35.2228 31.1585 35.2054 31.1948 35.1866 31.2297 35.1678 31.2646L35.1665 31.2632 28.447 27.5236 17.9235 21.6659 25.8376 18.0229 35.4953 23.3894 35.6376 23.4672ZM35.5195 12.3829 33.4712 13.9614 31.6578 16.8124 14.4162 7.21511 20.9678 2.61377 24.9276 4.90102H24.9289L32.1853 9.09028 33.6873 9.95739C34.6121 10.4916 35.2645 11.3722 35.5195 12.3829Z" fill="currentColor"/><path d="M24.9275 4.90091 0 19.1814V13.3372C0 11.9425.743624 10.6539 1.95034 9.95729L15.8685 1.92239C17.0752 1.22574 18.5624 1.22574 19.7705 1.92239L24.9275 4.90091ZM35.6376 13.3373V15.3655L3.43758 33.646 1.95034 32.787C.743624 32.089 0 30.8017 0 29.4071V27.3829L32.1852 9.09033 33.6872 9.95745C34.894 10.6541 35.6376 11.9427 35.6376 13.3373ZM35.6376 23.3062V29.4068C35.6376 29.4753 35.6363 29.5437 35.6322 29.6122 35.6309 29.6256 35.6309 29.6404 35.6296 29.6538 35.6269 29.6941 35.6242 29.7343 35.6202 29.776 35.6161 29.8162 35.6121 29.8565 35.6067 29.8968 35.6027 29.9357 35.596 29.9746 35.5906 30.0122 35.5812 30.0699 35.5718 30.1263 35.5598 30.184 35.5531 30.2202 35.545 30.2551 35.5369 30.2914 35.5289 30.3223 35.5208 30.3545 35.5128 30.3867 35.5061 30.4162 35.498 30.4444 35.4886 30.4739 35.4524 30.6041 35.4081 30.733 35.3571 30.8592 35.3463 30.886 35.3356 30.9142 35.3235 30.9411 35.2927 31.0149 35.2591 31.0874 35.2229 31.1585 35.2054 31.1947 35.1866 31.2296 35.1678 31.2645 35.1463 31.3035 35.1249 31.3424 35.102 31.38 35.0806 31.4189 35.0564 31.4565 35.0336 31.4941 34.9853 31.5679 34.9356 31.6417 34.8833 31.7129 34.8296 31.7853 34.7745 31.8551 34.7182 31.9223 34.6886 31.9572 34.6591 31.9907 34.6296 32.0229 34.6 32.0565 34.5692 32.0887 34.5383 32.1209 34.4765 32.1853 34.4121 32.2484 34.345 32.3075 34.3195 32.3317 34.2927 32.3545 34.2658 32.3773 34.2497 32.3907 34.2336 32.4041 34.2175 32.4176 34.1853 32.4458 34.1517 32.4726 34.1168 32.4981 34.0833 32.5249 34.0497 32.5504 34.0135 32.5746 33.9463 32.6243 33.8765 32.6713 33.8054 32.7155 33.7665 32.7397 33.7275 32.7639 33.6873 32.7867L19.7705 40.8216C18.5624 41.5182 17.0752 41.5182 15.8685 40.8216L10.7786 37.8833 28.447 27.5236 35.4953 23.3894 35.6376 23.3062Z" fill="currentColor"/><path d="M6.99866 7.04297V35.7007L3.43758 33.6457L1.95034 32.7866C0.743624 32.0886 0 30.8014 0 29.4067V13.3369C0 11.9423 0.743624 10.6537 1.95034 9.95706L6.99866 7.04297Z" fill="currentColor"/></g><path d="M71.072 26.9279C71.072 28.6345 70.5387 29.9252 69.472 30.7999 68.4267 31.6745 66.5707 32.1119 63.904 32.1119H53.92V11.8559H63.584C65.3547 11.8559 66.7307 12.0479 67.712 12.4319 68.7147 12.7945 69.4187 13.3385 69.824 14.0639 70.2293 14.7892 70.432 15.6959 70.432 16.7839 70.432 18.2772 70.0693 19.4399 69.344 20.2719 68.64 21.0825 67.3067 21.5732 65.344 21.7439V21.8399C66.7947 21.9465 67.936 22.1919 68.768 22.5759 69.6 22.9385 70.1867 23.4719 70.528 24.1759 70.8907 24.8799 71.072 25.7972 71.072 26.9279ZM62.176 15.8879H59.04V19.8559H62.176C63.2213 19.8559 63.9787 19.7279 64.448 19.4719 64.9173 19.1945 65.152 18.6612 65.152 17.8719 65.152 17.1039 64.9173 16.5812 64.448 16.3039 63.9787 16.0265 63.2213 15.8879 62.176 15.8879ZM62.816 24.0479H59.04V28.1119H62.816C63.8613 28.1119 64.6187 27.9732 65.088 27.6959 65.5573 27.3972 65.792 26.8532 65.792 26.0639 65.792 25.2532 65.5573 24.7199 65.088 24.4639 64.6187 24.1865 63.8613 24.0479 62.816 24.0479ZM79.0712 32.1119H73.9512V11.8559H79.0712V32.1119ZM96.04 11.8559H101.16V32.1119H96.072L90.312 23.5359C89.864 22.8532 89.4907 22.2772 89.192 21.8079 88.8933 21.3385 88.616 20.8692 88.36 20.3999 88.104 19.9305 87.816 19.3759 87.496 18.7359L87.4 18.8639C87.6987 19.8879 87.88 20.8479 87.944 21.7439 88.008 22.6185 88.04 23.4719 88.04 24.3039V32.1119H82.92V11.8559H88.008L93.768 20.4319C94.216 21.0932 94.5893 21.6692 94.888 22.1599 95.1867 22.6292 95.464 23.0985 95.72 23.5679 95.976 24.0372 96.264 24.5919 96.584 25.2319L96.68 25.1039C96.4667 24.2079 96.3067 23.3439 96.2 22.5119 96.0933 21.6585 96.04 20.8159 96.04 19.9839V11.8559ZM123.574 32.0159V32.1119H118.134C117.984 31.5999 117.803 31.0132 117.59 30.3519 117.398 29.6905 117.184 28.9865 116.95 28.2399H110.038C109.611 29.7332 109.216 31.0239 108.854 32.1119H103.414V32.0479L109.974 11.8559H117.014L123.574 32.0159ZM113.43 15.5039C113.216 16.5919 112.907 17.9145 112.502 19.4719 112.096 21.0292 111.67 22.6185 111.222 24.2399H115.798C115.328 22.6185 114.891 21.0292 114.486 19.4719 114.08 17.9145 113.771 16.5919 113.558 15.5039H113.43ZM142.978 26.9279C142.978 28.6345 142.445 29.9252 141.378 30.7999 140.333 31.6745 138.477 32.1119 135.81 32.1119H125.826V11.8559H135.49C137.261 11.8559 138.637 12.0479 139.618 12.4319 140.621 12.7945 141.325 13.3385 141.73 14.0639 142.136 14.7892 142.338 15.6959 142.338 16.7839 142.338 18.2772 141.976 19.4399 141.25 20.2719 140.546 21.0825 139.213 21.5732 137.25 21.7439V21.8399C138.701 21.9465 139.842 22.1919 140.674 22.5759 141.506 22.9385 142.093 23.4719 142.434 24.1759 142.797 24.8799 142.978 25.7972 142.978 26.9279ZM134.082 15.8879H130.946V19.8559H134.082C135.128 19.8559 135.885 19.7279 136.354 19.4719 136.824 19.1945 137.058 18.6612 137.058 17.8719 137.058 17.1039 136.824 16.5812 136.354 16.3039 135.885 16.0265 135.128 15.8879 134.082 15.8879ZM134.722 24.0479H130.946V28.1119H134.722C135.768 28.1119 136.525 27.9732 136.994 27.6959 137.464 27.3972 137.698 26.8532 137.698 26.0639 137.698 25.2532 137.464 24.7199 136.994 24.4639 136.525 24.1865 135.768 24.0479 134.722 24.0479ZM145.217 21.9679C145.217 19.3865 145.506 17.3385 146.081 15.8239 146.679 14.3092 147.692 13.2212 149.121 12.5599 150.572 11.8985 152.588 11.5679 155.169 11.5679 157.111 11.5679 158.721 11.7492 160.001 12.1119 161.281 12.4745 162.295 13.0612 163.041 13.8719 163.788 14.6825 164.311 15.7599 164.609 17.1039 164.929 18.4265 165.09 20.0479 165.09 21.9679 165.09 23.9092 164.929 25.5519 164.609 26.8959 164.311 28.2185 163.788 29.2852 163.041 30.0959 162.295 30.9065 161.281 31.4932 160.001 31.8559 158.721 32.2185 157.111 32.3999 155.169 32.3999 153.228 32.3999 151.618 32.2185 150.338 31.8559 149.058 31.4932 148.044 30.9065 147.298 30.0959 146.551 29.2852 146.017 28.2185 145.697 26.8959 145.377 25.5519 145.217 23.9092 145.217 21.9679ZM155.169 27.9199C156.535 27.9199 157.559 27.7492 158.242 27.4079 158.924 27.0665 159.383 26.4692 159.618 25.6159 159.852 24.7412 159.969 23.5252 159.969 21.9679 159.969 20.4319 159.852 19.2372 159.618 18.3839 159.383 17.5305 158.924 16.9332 158.242 16.5919 157.559 16.2292 156.535 16.0479 155.169 16.0479 153.825 16.0479 152.801 16.2292 152.097 16.5919 151.415 16.9332 150.945 17.5305 150.689 18.3839 150.455 19.2372 150.338 20.4319 150.338 21.9679 150.338 23.5252 150.455 24.7412 150.689 25.6159 150.945 26.4692 151.415 27.0665 152.097 27.4079 152.801 27.7492 153.825 27.9199 155.169 27.9199ZM181.351 21.7759 187.271 32.1119H180.871L177.191 24.9439H177.095L173.415 32.1119H167.015L172.935 21.7759V21.6159L167.399 11.8559H173.703L177.095 18.8959H177.191L180.583 11.8559H186.887L181.351 21.6159V21.7759Z" fill="currentColor"/><defs><linearGradient id="cpaint0_linear_30446_3788" x1="34.5638" y1="27.8431" x2="20.2685" y2="18.0444" gradientUnits="userSpaceOnUse"><stop stop-color="currentColor"/><stop offset="1" stop-color="currentColor" stop-opacity="0"/></linearGradient><linearGradient id="cpaint1_linear_30446_3788" x1="32.2148" y1="14.2862" x2="19.2618" y2="5.89698" gradientUnits="userSpaceOnUse"><stop stop-color="currentColor"/><stop offset="1" stop-color="currentColor" stop-opacity="0"/></linearGradient><clipPath id="cclip0_30446_3788"><rect width="36" height="40" fill="currentColor" transform="translate(0 1.3999)"/></clipPath></defs></symbol><symbol viewBox="0 0 22 17" fill="none" id="icon-discord" xmlns="http://www.w3.org/2000/svg"><path d="M18.9511 2.17422C17.0474 0.666915 14.0358 0.411408 13.9069 0.402217C13.707 0.385673 13.5165 0.495964 13.4343 0.677944C13.4268 0.688973 13.3614 0.837866 13.2886 1.06948C14.5477 1.27903 16.0946 1.69997 17.4939 2.55473C17.7181 2.69075 17.7872 2.98118 17.6489 3.20177C17.5574 3.34698 17.4023 3.42602 17.2417 3.42602C17.1557 3.42602 17.0679 3.40213 16.9895 3.35433C14.5832 1.88563 11.5791 1.8121 11 1.8121C10.4209 1.8121 7.41491 1.88563 5.01053 3.35433C4.78635 3.4922 4.49117 3.42419 4.35292 3.2036C4.21281 2.98118 4.28193 2.69259 4.50611 2.55473C5.9054 1.70181 7.45228 1.27903 8.71145 1.07131C8.63859 0.837866 8.5732 0.690811 8.5676 0.677944C8.48353 0.495964 8.29484 0.381997 8.09307 0.402217C7.96416 0.411408 4.95262 0.666915 3.02276 2.19444C2.0158 3.1117 0 8.47183 0 13.1059C0 13.1886 0.0224185 13.2676 0.0635192 13.3393C1.45346 15.7437 5.24779 16.3723 6.11277 16.3999C6.11651 16.3999 6.12211 16.3999 6.12772 16.3999C6.28091 16.3999 6.42476 16.3282 6.51444 16.2069L7.38876 15.0231C5.02921 14.4239 3.82422 13.4055 3.7551 13.3448C3.55707 13.1739 3.53838 12.8761 3.71399 12.6813C3.88774 12.4864 4.19039 12.468 4.38842 12.639C4.41644 12.6647 6.63587 14.5176 11 14.5176C15.3716 14.5176 17.591 12.6574 17.6135 12.639C17.8115 12.4699 18.1123 12.4864 18.2879 12.6831C18.4616 12.8779 18.4429 13.1739 18.2449 13.3448C18.1758 13.4055 16.9708 14.4239 14.6112 15.0231L15.4856 16.2069C15.5752 16.3282 15.7191 16.3999 15.8723 16.3999C15.8779 16.3999 15.8835 16.3999 15.8872 16.3999C16.7522 16.3723 20.5465 15.7437 21.9365 13.3393C21.9776 13.2676 22 13.1886 22 13.1059C22 8.47183 19.9842 3.1117 18.9511 2.17422ZM7.8913 11.2236C6.96654 11.2236 6.21739 10.3817 6.21739 9.34129C6.21739 8.30088 6.96654 7.45899 7.8913 7.45899C8.81607 7.45899 9.56522 8.30088 9.56522 9.34129C9.56522 10.3817 8.81607 11.2236 7.8913 11.2236ZM14.1087 11.2236C13.1839 11.2236 12.4348 10.3817 12.4348 9.34129C12.4348 8.30088 13.1839 7.45899 14.1087 7.45899C15.0335 7.45899 15.7826 8.30088 15.7826 9.34129C15.7826 10.3817 15.0335 11.2236 14.1087 11.2236Z" fill="currentColor"/></symbol><symbol viewBox="0 0 52 43" fill="none" id="icon-email" xmlns="http://www.w3.org/2000/svg"><path fill-rule="evenodd" clip-rule="evenodd" d="M13.7702 0.243287H38.2296C40.1078 0.243257 41.658 0.243233 42.9208 0.346407C44.2324 0.453566 45.438 0.683549 46.5704 1.26056C48.3266 2.15538 49.7544 3.5832 50.6493 5.33938C51.2061 6.43218 51.4397 7.59314 51.5517 8.85167C51.6765 9.23293 51.6983 9.63507 51.6242 10.019C51.6666 11.0693 51.6666 12.2841 51.6665 13.6802V28.8064C51.6666 30.6846 51.6666 32.2348 51.5634 33.4976C51.4563 34.8091 51.2263 36.0148 50.6493 37.1472C49.7544 38.9034 48.3266 40.3312 46.5704 41.226C45.438 41.803 44.2324 42.033 42.9208 42.1402C41.658 42.2433 40.1079 42.2433 38.2296 42.2433H13.7701C11.8919 42.2433 10.3417 42.2433 9.07895 42.1402C7.76739 42.033 6.56175 41.803 5.4293 41.226C3.67312 40.3312 2.2453 38.9034 1.35048 37.1472C0.773469 36.0148 0.543485 34.8091 0.436326 33.4976C0.333153 32.2348 0.333177 30.6846 0.333207 28.8063V13.6803C0.333185 12.2841 0.333165 11.0693 0.375527 10.019C0.301429 9.63507 0.3233 9.2329 0.448044 8.85164C0.560017 7.59313 0.793673 6.43217 1.35048 5.33938C2.2453 3.5832 3.67312 2.15538 5.4293 1.26056C6.56175 0.683549 7.76739 0.453566 9.07895 0.346407C10.3417 0.243233 11.8919 0.243257 13.7702 0.243287ZM4.99987 14.0582V28.71C4.99987 30.7086 5.00169 32.0673 5.08749 33.1175C5.17107 34.1405 5.32257 34.6636 5.50851 35.0286C5.95592 35.9067 6.66983 36.6206 7.54792 37.068C7.91285 37.2539 8.43599 37.4054 9.45896 37.489C10.5092 37.5748 11.8679 37.5766 13.8665 37.5766H38.1332C40.1319 37.5766 41.4906 37.5748 42.5408 37.489C43.5638 37.4054 44.0869 37.2539 44.4518 37.068C45.3299 36.6206 46.0438 35.9067 46.4912 35.0286C46.6772 34.6636 46.8287 34.1405 46.9123 33.1175C46.9981 32.0673 46.9999 30.7086 46.9999 28.71V14.0582L31.6198 24.8242C31.5293 24.8876 31.4396 24.9505 31.3507 25.013C30.0798 25.9053 28.9639 26.6889 27.6929 27.0057C26.5812 27.2828 25.4185 27.2828 24.3068 27.0057C23.0359 26.6889 21.9199 25.9054 20.6491 25.013C20.5602 24.9505 20.4705 24.8876 20.3799 24.8242L4.99987 14.0582ZM46.8067 8.49695L28.9436 21.0011C27.2428 22.1917 26.8824 22.3983 26.5642 22.4776C26.1937 22.57 25.8061 22.57 25.4355 22.4776C25.1173 22.3983 24.757 22.1917 23.0561 21.0011L5.193 8.49695C5.27636 8.01356 5.38481 7.70077 5.50851 7.458C5.95592 6.57991 6.66983 5.866 7.54792 5.41859C7.91285 5.23265 8.43599 5.08115 9.45896 4.99758C10.5092 4.91177 11.8679 4.90996 13.8665 4.90996H38.1332C40.1319 4.90996 41.4906 4.91177 42.5408 4.99758C43.5638 5.08116 44.0869 5.23265 44.4518 5.41859C45.3299 5.866 46.0438 6.57991 46.4912 7.458C46.6149 7.70077 46.7234 8.01356 46.8067 8.49695Z" fill="currentColor"/></symbol><symbol viewBox="0 0 20 21" fill="none" id="icon-facebook" xmlns="http://www.w3.org/2000/svg"><path d="M0.00195312 10.4615C0.00311667 15.4112 3.58035 19.6256 8.43895 20.4014V13.3693H5.90195V10.4615H8.44195V8.248C8.3284 7.19912 8.68447 6.15378 9.41359 5.39548C10.1427 4.63718 11.1693 4.24452 12.215 4.32399C12.9655 4.33619 13.7141 4.40345 14.455 4.52523V6.99936H13.191C12.7558 6.94202 12.3183 7.08662 12.0017 7.39244C11.6851 7.69825 11.5237 8.13218 11.563 8.57199V10.4615H14.334L13.891 13.3703H11.563V20.4014C16.8174 19.5658 20.502 14.7375 19.9475 9.41421C19.3929 4.09094 14.7932 0.136301 9.48078 0.415257C4.16831 0.694213 0.0027976 5.10911 0.00195312 10.4615Z" fill="currentColor"/></symbol><symbol viewBox="0 0 1728 376" fill="none" id="icon-hero-radial" xmlns="http://www.w3.org/2000/svg"><g opacity="0.2"><path d="M1359.31 -675.492C1137.68 -954.12 732.137 -1000.33 453.508 -778.695C174.88 -557.063 128.674 -151.522 350.305 127.106C571.937 405.735 977.478 451.941 1256.11 230.309C1534.74 8.67809 1580.94 -396.863 1359.31 -675.492Z" stroke="currentColor" stroke-width="2.5" stroke-miterlimit="10"/><path d="M1339.81 -659.983C1126.75 -927.845 736.878 -972.265 469.017 -759.198C201.155 -546.132 156.735 -156.263 369.802 111.599C582.868 379.46 972.737 423.88 1240.6 210.813C1508.46 -2.25308 1552.88 -392.122 1339.81 -659.983Z" stroke="currentColor" stroke-width="2.5" stroke-miterlimit="10"/><path d="M1320.31 -644.471C1115.81 -901.562 741.62 -944.196 484.529 -739.697C227.438 -535.198 184.804 -161.005 389.303 96.086C593.803 353.177 967.995 395.811 1225.09 191.311C1482.18 -13.1879 1524.81 -387.381 1320.31 -644.471Z" stroke="currentColor" stroke-width="2.5" stroke-miterlimit="10"/><path d="M1300.82 -628.963C1104.88 -875.287 746.36 -916.135 500.037 -720.2C253.714 -524.266 212.865 -165.745 408.8 80.578C604.734 326.901 963.255 367.75 1209.58 171.815C1455.9 -24.1192 1496.75 -382.64 1300.82 -628.963Z" stroke="currentColor" stroke-width="2.5" stroke-miterlimit="10"/><path d="M1281.32 -613.455C1093.95 -849.011 751.101 -888.073 515.545 -700.704C279.989 -513.334 240.926 -170.485 428.296 65.0704C615.666 300.626 958.514 339.689 1194.07 152.319C1429.63 -35.0502 1468.69 -377.899 1281.32 -613.455Z" stroke="currentColor" stroke-width="2.5" stroke-miterlimit="10"/><path d="M1261.82 -597.948C1083.02 -822.736 755.841 -860.013 531.053 -681.208C306.265 -502.404 268.987 -175.227 447.792 49.5617C626.597 274.35 953.774 311.627 1178.56 132.822C1403.35 -45.9823 1440.63 -373.159 1261.82 -597.948Z" stroke="currentColor" stroke-width="2.5" stroke-miterlimit="10"/><path d="M1242.32 -582.435C1072.08 -796.453 760.583 -831.944 546.565 -661.706C332.547 -491.469 297.056 -179.968 467.294 34.0496C637.531 248.067 949.032 283.558 1163.05 113.321C1377.07 -56.9165 1412.56 -368.417 1242.32 -582.435Z" stroke="currentColor" stroke-width="2.5" stroke-miterlimit="10"/><path d="M1222.83 -566.927C1061.15 -770.178 765.324 -803.883 562.073 -642.211C358.823 -480.538 325.117 -184.709 486.79 18.5411C648.463 221.792 944.291 255.497 1147.54 93.8243C1350.79 -67.8484 1384.5 -363.677 1222.83 -566.927Z" stroke="currentColor" stroke-width="2.5" stroke-miterlimit="10"/><path d="M1203.33 -551.419C1050.22 -743.902 770.064 -775.822 577.581 -622.714C385.098 -469.606 353.179 -189.449 506.286 3.03359C659.394 195.517 939.551 227.436 1132.03 74.3285C1324.52 -78.7793 1356.44 -358.936 1203.33 -551.419Z" stroke="currentColor" stroke-width="2.5" stroke-miterlimit="10"/><path d="M1183.83 -535.911C1039.29 -717.626 774.805 -747.761 593.089 -603.218C411.374 -458.675 381.24 -194.19 525.783 -12.4744C670.326 169.241 934.81 199.375 1116.53 54.8324C1298.24 -89.7107 1328.38 -354.195 1183.83 -535.911Z" stroke="currentColor" stroke-width="2.5" stroke-miterlimit="10"/><path d="M1164.33 -520.399C1028.36 -691.344 779.547 -719.692 608.602 -583.716C437.657 -447.74 409.309 -198.932 545.284 -27.9871C681.26 142.958 930.069 171.306 1101.01 35.3302C1271.96 -100.646 1300.31 -349.454 1164.33 -520.399Z" stroke="currentColor" stroke-width="2.5" stroke-miterlimit="10"/><path d="M1144.83 -504.891C1017.42 -665.068 784.287 -691.631 624.11 -564.22C463.932 -436.809 437.37 -203.672 564.781 -43.4948C692.192 116.683 925.328 143.245 1085.51 15.8343C1245.68 -111.577 1272.25 -344.713 1144.83 -504.891Z" stroke="currentColor" stroke-width="2.5" stroke-miterlimit="10"/><path d="M1125.34 -489.382C1006.49 -638.792 789.028 -663.569 639.618 -544.723C490.208 -425.877 465.431 -208.413 584.277 -59.0025C703.123 90.4075 920.588 115.184 1070 -3.66162C1219.41 -122.508 1244.18 -339.972 1125.34 -489.382Z" stroke="currentColor" stroke-width="2.5" stroke-miterlimit="10"/><path d="M1105.84 -473.875C995.561 -612.518 793.768 -635.509 655.126 -525.228C516.483 -414.946 493.492 -213.154 603.773 -74.5112C714.054 64.1314 915.847 87.1228 1054.49 -23.1585C1193.13 -133.44 1216.12 -335.232 1105.84 -473.875Z" stroke="currentColor" stroke-width="2.5" stroke-miterlimit="10"/><path d="M1086.34 -458.362C984.626 -586.234 798.51 -607.44 670.638 -505.726C542.766 -404.011 521.561 -217.895 623.275 -90.0231C724.989 37.8489 911.105 59.0542 1038.98 -42.6598C1166.85 -144.374 1188.05 -330.49 1086.34 -458.362Z" stroke="currentColor" stroke-width="2.5" stroke-miterlimit="10"/><path d="M1066.84 -442.854C973.695 -559.958 803.251 -579.378 686.146 -486.229C569.042 -393.08 549.622 -222.635 642.771 -105.531C735.92 11.5738 906.365 30.9935 1023.47 -62.1557C1140.57 -155.305 1159.99 -325.749 1066.84 -442.854Z" stroke="currentColor" stroke-width="2.5" stroke-miterlimit="10"/><path d="M1047.35 -427.346C962.764 -533.684 807.991 -551.318 701.654 -466.733C595.317 -382.149 577.683 -227.377 662.267 -121.039C746.852 -14.7023 901.624 2.9318 1007.96 -81.6526C1114.3 -166.237 1131.93 -321.009 1047.35 -427.346Z" stroke="currentColor" stroke-width="2.5" stroke-miterlimit="10"/><path d="M1027.85 -411.838C951.832 -507.408 812.732 -523.256 717.162 -447.237C621.593 -371.217 605.744 -232.117 681.764 -136.547C757.783 -40.9775 896.884 -25.129 992.453 -101.149C1088.02 -177.168 1103.87 -316.269 1027.85 -411.838Z" stroke="currentColor" stroke-width="2.5" stroke-miterlimit="10"/><path d="M1008.35 -396.326C940.898 -481.125 817.474 -495.188 732.675 -427.735C647.875 -360.283 633.813 -236.859 701.265 -152.06C768.718 -67.2608 892.142 -53.1984 976.941 -120.651C1061.74 -188.103 1075.8 -311.527 1008.35 -396.326Z" stroke="currentColor" stroke-width="2.5" stroke-miterlimit="10"/></g><defs><linearGradient id="hpaint0_linear_30446_2035" x1="350.305" y1="127.106" x2="1359.31" y2="-675.492" gradientUnits="userSpaceOnUse"><stop offset="0.807692" stop-color="currentColor"/><stop offset="1" stop-color="currentColor"/></linearGradient><linearGradient id="hpaint1_linear_30446_2035" x1="369.802" y1="111.599" x2="1339.81" y2="-659.983" gradientUnits="userSpaceOnUse"><stop offset="0.807692" stop-color="currentColor"/><stop offset="1" stop-color="currentColor"/></linearGradient><linearGradient id="hpaint2_linear_30446_2035" x1="389.303" y1="96.0859" x2="1320.31" y2="-644.471" gradientUnits="userSpaceOnUse"><stop offset="0.807692" stop-color="currentColor"/><stop offset="1" stop-color="currentColor"/></linearGradient><linearGradient id="hpaint3_linear_30446_2035" x1="408.8" y1="80.578" x2="1300.82" y2="-628.963" gradientUnits="userSpaceOnUse"><stop offset="0.807692" stop-color="currentColor"/><stop offset="1" stop-color="currentColor"/></linearGradient><linearGradient id="hpaint4_linear_30446_2035" x1="428.296" y1="65.0704" x2="1281.32" y2="-613.455" gradientUnits="userSpaceOnUse"><stop offset="0.807692" stop-color="currentColor"/><stop offset="1" stop-color="currentColor"/></linearGradient><linearGradient id="hpaint5_linear_30446_2035" x1="447.792" y1="49.5617" x2="1261.82" y2="-597.948" gradientUnits="userSpaceOnUse"><stop offset="0.807692" stop-color="currentColor"/><stop offset="1" stop-color="currentColor"/></linearGradient><linearGradient id="hpaint6_linear_30446_2035" x1="467.294" y1="34.0495" x2="1242.32" y2="-582.435" gradientUnits="userSpaceOnUse"><stop offset="0.807692" stop-color="currentColor"/><stop offset="1" stop-color="currentColor"/></linearGradient><linearGradient id="hpaint7_linear_30446_2035" x1="486.79" y1="18.5411" x2="1222.83" y2="-566.927" gradientUnits="userSpaceOnUse"><stop offset="0.807692" stop-color="currentColor"/><stop offset="1" stop-color="currentColor"/></linearGradient><linearGradient id="hpaint8_linear_30446_2035" x1="506.286" y1="3.03359" x2="1203.33" y2="-551.419" gradientUnits="userSpaceOnUse"><stop offset="0.807692" stop-color="currentColor"/><stop offset="1" stop-color="currentColor"/></linearGradient><linearGradient id="hpaint9_linear_30446_2035" x1="525.783" y1="-12.4743" x2="1183.83" y2="-535.911" gradientUnits="userSpaceOnUse"><stop offset="0.807692" stop-color="currentColor"/><stop offset="1" stop-color="currentColor"/></linearGradient><linearGradient id="hpaint10_linear_30446_2035" x1="545.284" y1="-27.9871" x2="1164.33" y2="-520.399" gradientUnits="userSpaceOnUse"><stop offset="0.807692" stop-color="currentColor"/><stop offset="1" stop-color="currentColor"/></linearGradient><linearGradient id="hpaint11_linear_30446_2035" x1="564.781" y1="-43.4948" x2="1144.83" y2="-504.891" gradientUnits="userSpaceOnUse"><stop offset="0.807692" stop-color="currentColor"/><stop offset="1" stop-color="currentColor"/></linearGradient><linearGradient id="hpaint12_linear_30446_2035" x1="584.277" y1="-59.0025" x2="1125.34" y2="-489.382" gradientUnits="userSpaceOnUse"><stop offset="0.807692" stop-color="currentColor"/><stop offset="1" stop-color="currentColor"/></linearGradient><linearGradient id="hpaint13_linear_30446_2035" x1="603.773" y1="-74.5112" x2="1105.84" y2="-473.875" gradientUnits="userSpaceOnUse"><stop offset="0.807692" stop-color="currentColor"/><stop offset="1" stop-color="currentColor"/></linearGradient><linearGradient id="hpaint14_linear_30446_2035" x1="623.275" y1="-90.0232" x2="1086.34" y2="-458.362" gradientUnits="userSpaceOnUse"><stop offset="0.807692" stop-color="currentColor"/><stop offset="1" stop-color="currentColor"/></linearGradient><linearGradient id="hpaint15_linear_30446_2035" x1="642.771" y1="-105.531" x2="1066.84" y2="-442.854" gradientUnits="userSpaceOnUse"><stop offset="0.807692" stop-color="currentColor"/><stop offset="1" stop-color="currentColor"/></linearGradient><linearGradient id="hpaint16_linear_30446_2035" x1="662.267" y1="-121.039" x2="1047.35" y2="-427.346" gradientUnits="userSpaceOnUse"><stop offset="0.807692" stop-color="currentColor"/><stop offset="1" stop-color="currentColor"/></linearGradient><linearGradient id="hpaint17_linear_30446_2035" x1="681.764" y1="-136.547" x2="1027.85" y2="-411.838" gradientUnits="userSpaceOnUse"><stop offset="0.807692" stop-color="currentColor"/><stop offset="1" stop-color="currentColor"/></linearGradient><linearGradient id="hpaint18_linear_30446_2035" x1="701.265" y1="-152.06" x2="1008.35" y2="-396.326" gradientUnits="userSpaceOnUse"><stop offset="0.807692" stop-color="currentColor"/><stop offset="1" stop-color="currentColor"/></linearGradient></defs></symbol><symbol viewBox="0 0 40 41" fill="none" id="icon-instagram" xmlns="http://www.w3.org/2000/svg"><path fill-rule="evenodd" clip-rule="evenodd" d="M16.1947 11.2243C17.179 11.179 17.4929 11.1689 20.0003 11.1689C22.5077 11.1689 22.8216 11.1799 23.8051 11.2243C24.7886 11.2688 25.4599 11.4257 26.0473 11.6531C26.6624 11.8856 27.2204 12.2489 27.682 12.7189C28.1519 13.1796 28.5144 13.7368 28.746 14.3527C28.9743 14.9401 29.1304 15.6115 29.1757 16.5933C29.221 17.5793 29.2311 17.8931 29.2311 20.3997C29.2311 22.9071 29.2202 23.221 29.1757 24.2053C29.1312 25.1871 28.9743 25.8585 28.746 26.4459C28.5144 27.0619 28.1513 27.62 27.682 28.0814C27.2204 28.5513 26.6624 28.9138 26.0473 29.1455C25.4599 29.3737 24.7886 29.5298 23.8067 29.5751C22.8216 29.6204 22.5077 29.6305 20.0003 29.6305C17.4929 29.6305 17.179 29.6196 16.1947 29.5751C15.2129 29.5306 14.5416 29.3737 13.9541 29.1455C13.3381 28.9138 12.78 28.5507 12.3186 28.0814C11.849 27.6204 11.4856 27.0626 11.2537 26.4467C11.0263 25.8593 10.8702 25.188 10.8249 24.2062C10.7796 23.2201 10.7695 22.9063 10.7695 20.3997C10.7695 17.8923 10.7804 17.5785 10.8249 16.595C10.8694 15.6115 11.0263 14.9401 11.2537 14.3527C11.4859 13.7368 11.8496 13.179 12.3195 12.718C12.7802 12.2485 13.3378 11.8851 13.9533 11.6531C14.5407 11.4257 15.212 11.2696 16.1939 11.2243H16.1947ZM23.7304 12.8859C22.7569 12.8414 22.4649 12.8322 20.0003 12.8322C17.5357 12.8322 17.2437 12.8414 16.2702 12.8859C15.3698 12.927 14.8814 13.0772 14.5558 13.2039C14.1253 13.3717 13.8174 13.5706 13.4943 13.8937C13.188 14.1916 12.9523 14.5544 12.8045 14.9552C12.6778 15.2808 12.5276 15.7692 12.4865 16.6696C12.442 17.6431 12.4327 17.9351 12.4327 20.3997C12.4327 22.8643 12.442 23.1564 12.4865 24.1298C12.5276 25.0302 12.6778 25.5186 12.8045 25.8442C12.9522 26.2445 13.188 26.6078 13.4943 26.9057C13.7922 27.212 14.1555 27.4478 14.5558 27.5955C14.8814 27.7222 15.3698 27.8724 16.2702 27.9136C17.2437 27.958 17.5348 27.9673 20.0003 27.9673C22.4658 27.9673 22.7569 27.958 23.7304 27.9136C24.6308 27.8724 25.1192 27.7222 25.4448 27.5955C25.8753 27.4277 26.1832 27.2288 26.5063 26.9057C26.8126 26.6078 27.0484 26.2445 27.1961 25.8442C27.3228 25.5186 27.473 25.0302 27.5142 24.1298C27.5586 23.1564 27.5679 22.8643 27.5679 20.3997C27.5679 17.9351 27.5586 17.6431 27.5142 16.6696C27.473 15.7692 27.3228 15.2808 27.1961 14.9552C27.0283 14.5248 26.8294 14.2168 26.5063 13.8937C26.2084 13.5875 25.8456 13.3518 25.4448 13.2039C25.1192 13.0772 24.6308 12.927 23.7304 12.8859ZM18.8213 23.2453C19.4797 23.5194 20.2129 23.5564 20.8956 23.35C21.5783 23.1435 22.1682 22.7065 22.5645 22.1135C22.9607 21.5205 23.1388 20.8083 23.0683 20.0985C22.9978 19.3888 22.6831 18.7256 22.1779 18.2221C21.8559 17.9003 21.4665 17.6538 21.0378 17.5005C20.6091 17.3473 20.1517 17.2909 19.6986 17.3356C19.2455 17.3803 18.808 17.5249 18.4175 17.759C18.027 17.9931 17.6932 18.3108 17.4403 18.6894C17.1873 19.0679 17.0214 19.4979 16.9546 19.9482C16.8877 20.3986 16.9215 20.8581 17.0536 21.2939C17.1857 21.7296 17.4127 22.1306 17.7184 22.468C18.024 22.8055 18.4007 23.0709 18.8213 23.2453ZM16.6453 17.0448C17.0859 16.6042 17.609 16.2547 18.1846 16.0162C18.7603 15.7778 19.3772 15.6551 20.0003 15.6551C20.6234 15.6551 21.2404 15.7778 21.816 16.0162C22.3916 16.2547 22.9147 16.6042 23.3553 17.0448C23.7958 17.4853 24.1453 18.0084 24.3838 18.584C24.6222 19.1597 24.7449 19.7766 24.7449 20.3997C24.7449 21.0228 24.6222 21.6398 24.3838 22.2154C24.1453 22.7911 23.7958 23.3141 23.3553 23.7547C22.4655 24.6445 21.2587 25.1444 20.0003 25.1444C18.7419 25.1444 17.5351 24.6445 16.6453 23.7547C15.7555 22.8649 15.2557 21.6581 15.2557 20.3997C15.2557 19.1414 15.7555 17.9345 16.6453 17.0448ZM25.7972 16.3617C25.9064 16.2587 25.9938 16.1348 26.0543 15.9975C26.1147 15.8601 26.147 15.712 26.1492 15.5619C26.1514 15.4118 26.1234 15.2628 26.067 15.1238C26.0106 14.9847 25.9268 14.8583 25.8207 14.7522C25.7146 14.6461 25.5882 14.5623 25.4491 14.5059C25.3101 14.4495 25.1611 14.4215 25.011 14.4237C24.8609 14.4259 24.7128 14.4582 24.5754 14.5186C24.4381 14.5791 24.3142 14.6665 24.2112 14.7757C24.0109 14.988 23.9013 15.27 23.9055 15.5619C23.9098 15.8538 24.0276 16.1325 24.234 16.3389C24.4404 16.5453 24.7191 16.6631 25.011 16.6674C25.3029 16.6716 25.5849 16.562 25.7972 16.3617Z" fill="currentColor"/></symbol><symbol viewBox="0 0 25 25" fill="none" id="icon-linkedin" xmlns="http://www.w3.org/2000/svg"><path d="M20.3645 3.16895H4.63251C3.87891 3.16895 3.26953 3.7639 3.26953 4.49947V20.2964C3.26953 21.0319 3.87891 21.6305 4.63251 21.6305H20.3645C21.1181 21.6305 21.7311 21.0319 21.7311 20.3V4.49947C21.7311 3.7639 21.1181 3.16895 20.3645 3.16895ZM8.7467 18.9009H6.00631V10.0884H8.7467V18.9009ZM7.3765 8.8877C6.4967 8.8877 5.78636 8.17736 5.78636 7.30116C5.78636 6.42496 6.4967 5.71462 7.3765 5.71462C8.25271 5.71462 8.96304 6.42496 8.96304 7.30116C8.96304 8.17375 8.25271 8.8877 7.3765 8.8877ZM19.0015 18.9009H16.2647V14.6173C16.2647 13.5968 16.2467 12.2807 14.8404 12.2807C13.4162 12.2807 13.1998 13.3949 13.1998 14.5451V18.9009H10.4666V10.0884H13.0916V11.2927H13.1277C13.4919 10.6004 14.3861 9.86847 15.7167 9.86847C18.4895 9.86847 19.0015 11.693 19.0015 14.0656V18.9009Z" fill="currentColor"/></symbol><symbol viewBox="0 0 42 52" fill="none" id="icon-location" xmlns="http://www.w3.org/2000/svg"><path fill-rule="evenodd" clip-rule="evenodd" d="M21 5.24327C11.9793 5.24327 4.66667 12.5559 4.66667 21.5766C4.66667 27.9695 8.02506 31.4515 12.2912 35.0299C12.7377 35.4045 13.2018 35.7839 13.676 36.1717C16.202 38.2371 19.0154 40.5376 21 43.5841C22.9846 40.5376 25.798 38.2371 28.324 36.1717C28.7982 35.7839 29.2623 35.4045 29.7088 35.0299C33.9749 31.4515 37.3333 27.9695 37.3333 21.5766C37.3333 12.5559 30.0207 5.24327 21 5.24327ZM0 21.5766C0 9.97862 9.40202 0.576599 21 0.576599C32.598 0.576599 42 9.97862 42 21.5766C42 30.1597 37.1917 34.8443 32.7078 38.6053C32.2339 39.0028 31.769 39.3876 31.3153 39.7632C27.3012 43.0858 24.1572 45.6881 23.288 50.0342C23.0699 51.1249 22.1123 51.9099 21 51.9099C19.8877 51.9099 18.9301 51.1249 18.712 50.0342C17.8428 45.6881 14.6988 43.0858 10.6847 39.7632C10.231 39.3876 9.7661 39.0028 9.29216 38.6053C4.80827 34.8443 0 30.1597 0 21.5766ZM21 16.9099C18.4227 16.9099 16.3333 18.9993 16.3333 21.5766C16.3333 24.1539 18.4227 26.2433 21 26.2433C23.5773 26.2433 25.6667 24.1539 25.6667 21.5766C25.6667 18.9993 23.5773 16.9099 21 16.9099ZM11.6667 21.5766C11.6667 16.4219 15.8453 12.2433 21 12.2433C26.1547 12.2433 30.3333 16.4219 30.3333 21.5766C30.3333 26.7313 26.1547 30.9099 21 30.9099C15.8453 30.9099 11.6667 26.7313 11.6667 21.5766Z" fill="currentColor"/></symbol><symbol viewBox="0 0 20 20" fill="none" id="icon-login" xmlns="http://www.w3.org/2000/svg"><path fill-rule="evenodd" clip-rule="evenodd" d="M9.99997 2C8.06698 2 6.49997 3.567 6.49997 5.5C6.49997 7.433 8.06698 9 9.99997 9C11.933 9 13.5 7.433 13.5 5.5C13.5 3.567 11.933 2 9.99997 2ZM4.49997 5.5C4.49997 2.46243 6.96241 0 9.99997 0C13.0375 0 15.5 2.46243 15.5 5.5C15.5 8.53757 13.0375 11 9.99997 11C6.96241 11 4.49997 8.53757 4.49997 5.5ZM9.99997 14C7.16094 14 4.63046 15.3693 3.01382 17.5088C2.91492 17.6397 2.83923 17.74 2.77627 17.8281C2.72848 17.895 2.69586 17.9442 2.67314 17.9814C2.82177 17.9984 3.03354 18 3.42721 18H16.5727C16.9664 18 17.1782 17.9984 17.3268 17.9814C17.3041 17.9442 17.2715 17.895 17.2237 17.8281C17.1607 17.74 17.085 17.6397 16.9861 17.5088C15.3695 15.3693 12.839 14 9.99997 14ZM1.41812 16.3031C3.39108 13.692 6.49885 12 9.99997 12C13.5011 12 16.6089 13.692 18.5818 16.3031C18.5907 16.3149 18.5997 16.3268 18.6087 16.3387C18.7783 16.563 18.9602 16.8035 19.0902 17.0356C19.2475 17.3165 19.3642 17.6414 19.3569 18.0366C19.3511 18.3542 19.2549 18.6516 19.138 18.8864C19.0211 19.1212 18.8419 19.3772 18.592 19.5734C18.2586 19.835 17.8957 19.9276 17.5733 19.9662C17.2905 20.0001 16.9553 20.0001 16.6183 20C16.6031 20 16.5879 20 16.5727 20H3.42721C3.41202 20 3.39682 20 3.38164 20C3.04464 20.0001 2.70946 20.0001 2.42662 19.9662C2.10423 19.9276 1.74132 19.835 1.408 19.5734C1.15805 19.3772 0.978825 19.1212 0.861949 18.8864C0.745073 18.6516 0.648828 18.3542 0.643019 18.0366C0.635792 17.6414 0.7524 17.3165 0.909736 17.0356C1.03972 16.8035 1.22161 16.563 1.39124 16.3387C1.40024 16.3268 1.4092 16.3149 1.41812 16.3031Z" fill="currentColor"/></symbol><symbol viewBox="0 0 21 12" fill="none" id="icon-nav-arrow" xmlns="http://www.w3.org/2000/svg"><path d="M10.5 11.9609C10.1094 11.9609 9.75391 11.8047 9.43359 11.4922L0.515625 2.36328C0.382813 2.23828 0.28125 2.09766 0.210938 1.94141C0.148438 1.77734 0.117188 1.60156 0.117188 1.41406C0.117188 1.15625 0.175781 0.921875 0.292969 0.710938C0.417969 0.5 0.582031 0.335938 0.785156 0.21875C0.988281 0.09375 1.21875 0.03125 1.47656 0.03125C1.85156 0.03125 2.17969 0.171875 2.46094 0.453125L11.0742 9.27734H9.9375L18.5391 0.453125C18.8203 0.171875 19.1484 0.03125 19.5234 0.03125C19.7812 0.03125 20.0117 0.09375 20.2148 0.21875C20.418 0.335938 20.5781 0.5 20.6953 0.710938C20.8203 0.921875 20.8828 1.15625 20.8828 1.41406C20.8828 1.78125 20.75 2.09766 20.4844 2.36328L11.5664 11.4922C11.418 11.6484 11.2539 11.7656 11.0742 11.8438C10.8945 11.9219 10.7031 11.9609 10.5 11.9609Z" fill="currentColor"/></symbol><symbol viewBox="0 0 49 49" fill="none" id="icon-phone" xmlns="http://www.w3.org/2000/svg"><path fill-rule="evenodd" clip-rule="evenodd" d="M12.112 5.78846C11.4499 5.45354 10.6679 5.45354 10.0057 5.78846C9.75673 5.91441 9.4463 6.18336 8.07658 7.55308L7.70877 7.92089C6.40159 9.22807 6.04925 9.60612 5.76759 10.1075C5.44113 10.6887 5.16762 11.7404 5.16961 12.407C5.17137 13.0001 5.25894 13.3573 5.64454 14.7159C7.54762 21.4209 11.1377 27.7484 16.4211 33.0318C21.7045 38.3152 28.032 41.9053 34.737 43.8084C36.0956 44.194 36.4528 44.2816 37.046 44.2833C37.7125 44.2853 38.7643 44.0118 39.3454 43.6853C39.8468 43.4037 40.2249 43.0513 41.532 41.7442L41.8999 41.3764C43.2696 40.0066 43.5385 39.6962 43.6645 39.4472C43.9994 38.785 43.9994 38.0031 43.6645 37.3409C43.5385 37.0919 43.2696 36.7815 41.8999 35.4117L43.5498 33.7618L41.8998 35.4117L41.4452 34.9571C40.5452 34.0571 40.3428 33.8728 40.1894 33.7731C39.4161 33.2702 38.419 33.2702 37.6457 33.7731C37.4923 33.8728 37.2899 34.0571 36.3899 34.957C36.3722 34.9748 36.354 34.9931 36.3353 35.0118C36.1259 35.222 35.8608 35.488 35.5425 35.716L34.184 33.8189L35.5425 35.716C34.4062 36.5296 32.8614 36.793 31.5196 36.4019C31.1454 36.2928 30.8374 36.1443 30.5978 36.0288C30.5788 36.0197 30.5603 36.0108 30.5422 36.0021C26.9256 34.2657 23.5383 31.8995 20.5459 28.907C17.5535 25.9146 15.1873 22.5273 13.4508 18.9107C13.4422 18.8926 13.4332 18.8741 13.4241 18.8552C13.3086 18.6156 13.1601 18.3075 13.051 17.9333L15.2911 17.2803L13.051 17.9333C12.6599 16.5916 12.9233 15.0468 13.737 13.9105L13.737 13.9105C13.9649 13.5921 14.231 13.327 14.4411 13.1176C14.4598 13.099 14.4781 13.0808 14.4959 13.063C15.3959 12.163 15.5802 11.9606 15.6799 11.8073L15.6799 11.8073C16.1827 11.0339 16.1827 10.0369 15.6799 9.26351C15.5802 9.11013 15.3959 8.90776 14.4959 8.00777L14.0412 7.55308C12.6715 6.18336 12.361 5.91441 12.112 5.78846ZM7.89946 1.62416C9.88593 0.61942 12.2319 0.619418 14.2183 1.62416C15.2277 2.13471 16.104 3.01324 17.1177 4.02954C17.1914 4.10341 17.2658 4.17801 17.341 4.25325L17.7957 4.70794C17.8453 4.75752 17.8944 4.80655 17.943 4.8551C18.6119 5.52284 19.1881 6.09803 19.5923 6.71975L17.6361 7.99163L19.5923 6.71975C21.1008 9.03987 21.1008 12.0309 19.5923 14.351C19.1881 14.9727 18.6119 15.5479 17.943 16.2157C17.8944 16.2642 17.8453 16.3132 17.7957 16.3628C17.6613 16.4972 17.5927 16.5662 17.545 16.6167C17.5441 16.6205 17.5432 16.6247 17.5425 16.6293C17.5416 16.6343 17.541 16.639 17.5405 16.6432C17.5482 16.6603 17.5586 16.6829 17.573 16.7133C17.5954 16.761 17.6217 16.8159 17.6578 16.8909C19.1693 20.0392 21.2308 22.9923 23.8457 25.6072C26.4607 28.2221 29.4137 30.2836 32.562 31.7952L31.5521 33.8986L32.562 31.7952C32.637 31.8312 32.6919 31.8575 32.7396 31.88C32.7701 31.8943 32.7927 31.9047 32.8097 31.9124C32.8139 31.912 32.8186 31.9113 32.8237 31.9105C32.8282 31.9097 32.8324 31.9088 32.8362 31.908C32.8868 31.8602 32.9557 31.7916 33.0901 31.6572C33.1397 31.6076 33.1887 31.5585 33.2373 31.5099C33.905 30.841 34.4802 30.2648 35.1019 29.8606C37.422 28.3521 40.4131 28.3521 42.7332 29.8606C43.3549 30.2648 43.9301 30.841 44.5978 31.5099C44.6464 31.5585 44.6954 31.6076 44.745 31.6572L43.0951 33.3071L44.745 31.6572L45.1997 32.1119C45.2749 32.1871 45.3495 32.2616 45.4234 32.3352C46.4397 33.3489 47.3182 34.2252 47.8288 35.2346C48.8335 37.2211 48.8335 39.567 47.8288 41.5535C47.3182 42.5629 46.4397 43.4392 45.4234 44.4529C45.3495 44.5266 45.2749 44.601 45.1997 44.6762L44.8319 45.044C44.7786 45.0973 44.726 45.15 44.6739 45.2021C43.5883 46.2888 42.7558 47.1221 41.631 47.754C40.3478 48.4748 38.5039 48.9544 37.0321 48.95C35.7443 48.9462 34.8052 48.6793 33.5942 48.3351C33.5508 48.3227 33.507 48.3103 33.4628 48.2977C26.012 46.183 18.9818 42.1921 13.1213 36.3317C7.2608 30.4712 3.26998 23.441 1.15521 15.9901C1.14267 15.9459 1.13022 15.9022 1.11787 15.8587C0.773692 14.6477 0.506789 13.7086 0.502959 12.4209C0.498579 10.9491 0.978093 9.10516 1.69893 7.82196L1.69893 7.82195C2.3308 6.69713 3.16416 5.86463 4.25086 4.77903C4.30297 4.72697 4.35566 4.67434 4.40894 4.62106L4.77675 4.25325C4.85199 4.17801 4.9264 4.10341 5.00009 4.02953C6.01378 3.01324 6.89007 2.13471 7.89946 1.62417L8.94067 3.68272L7.89946 1.62416Z" fill="currentColor"/></symbol><symbol viewBox="0 0 20 20" fill="none" id="icon-search" xmlns="http://www.w3.org/2000/svg"><path fill-rule="evenodd" clip-rule="evenodd" d="M9 2C5.13401 2 2 5.13401 2 9C2 12.866 5.13401 16 9 16C10.8859 16 12.5977 15.2542 13.8564 14.0414C13.8827 14.0072 13.9115 13.9742 13.9429 13.9429C13.9742 13.9115 14.0072 13.8827 14.0414 13.8564C15.2542 12.5977 16 10.8859 16 9C16 5.13401 12.866 2 9 2ZM16.0319 14.6177C17.2635 13.078 18 11.125 18 9C18 4.02944 13.9706 0 9 0C4.02944 0 0 4.02944 0 9C0 13.9706 4.02944 18 9 18C11.125 18 13.078 17.2635 14.6177 16.0319L18.2929 19.7071C18.6834 20.0976 19.3166 20.0976 19.7071 19.7071C20.0976 19.3166 20.0976 18.6834 19.7071 18.2929L16.0319 14.6177Z" fill="currentColor"/></symbol><symbol viewBox="0 0 16 17" fill="none" id="icon-stars" xmlns="http://www.w3.org/2000/svg"><path fill-rule="evenodd" clip-rule="evenodd" d="M3.00033 1.09448C3.36852 1.09448 3.66699 1.39296 3.66699 1.76115V2.76115H4.66699C5.03518 2.76115 5.33366 3.05963 5.33366 3.42782C5.33366 3.79601 5.03518 4.09448 4.66699 4.09448H3.66699V5.09448C3.66699 5.46267 3.36852 5.76115 3.00033 5.76115C2.63214 5.76115 2.33366 5.46267 2.33366 5.09448V4.09448H1.33366C0.965469 4.09448 0.666992 3.79601 0.666992 3.42782C0.666992 3.05963 0.965469 2.76115 1.33366 2.76115H2.33366V1.76115C2.33366 1.39296 2.63214 1.09448 3.00033 1.09448ZM8.66699 1.76115C8.94284 1.76115 9.1902 1.93103 9.28922 2.1885L10.4453 5.1944C10.6456 5.7151 10.7085 5.86515 10.7946 5.98621C10.881 6.10768 10.9871 6.21381 11.1086 6.30018C11.2297 6.38627 11.3797 6.4492 11.9004 6.64947L14.9063 7.80558C15.1638 7.90461 15.3337 8.15197 15.3337 8.42782C15.3337 8.70366 15.1638 8.95102 14.9063 9.05005L11.9004 10.2062C11.3797 10.4064 11.2297 10.4694 11.1086 10.5554C10.9871 10.6418 10.881 10.7479 10.7946 10.8694C10.7085 10.9905 10.6456 11.1405 10.4453 11.6612L9.28922 14.6671C9.1902 14.9246 8.94284 15.0945 8.66699 15.0945C8.39115 15.0945 8.14379 14.9246 8.04476 14.6671L6.88864 11.6612C6.68838 11.1405 6.62544 10.9905 6.53936 10.8694C6.45299 10.7479 6.34686 10.6418 6.22539 10.5554C6.10432 10.4694 5.95428 10.4064 5.43358 10.2062L2.42767 9.05005C2.17021 8.95102 2.00033 8.70366 2.00033 8.42782C2.00033 8.15197 2.17021 7.90461 2.42767 7.80558L5.43358 6.64947C5.95428 6.4492 6.10432 6.38627 6.22539 6.30018C6.34686 6.21381 6.45299 6.10768 6.53936 5.98621C6.62544 5.86515 6.68837 5.7151 6.88864 5.1944L8.04476 2.1885C8.14378 1.93103 8.39114 1.76115 8.66699 1.76115ZM8.66699 4.28493L8.1331 5.67304C8.12426 5.69603 8.11555 5.71871 8.10695 5.7411C7.94457 6.16394 7.82191 6.48335 7.626 6.75887C7.45325 7.00181 7.24099 7.21407 6.99805 7.38682C6.72253 7.58273 6.40312 7.70539 5.98028 7.86778C5.95789 7.87638 5.9352 7.88509 5.91222 7.89393L4.52411 8.42782L5.91222 8.9617C5.9352 8.97054 5.95789 8.97925 5.98028 8.98785C6.40312 9.15024 6.72253 9.2729 6.99805 9.46881C7.24099 9.64156 7.45325 9.85382 7.626 10.0968C7.8219 10.3723 7.94457 10.6917 8.10695 11.1145C8.11555 11.1369 8.12426 11.1596 8.1331 11.1826L8.66699 12.5707L9.20088 11.1826C9.20972 11.1596 9.21843 11.1369 9.22703 11.1145C9.38941 10.6917 9.51208 10.3723 9.70799 10.0968C9.88073 9.85382 10.093 9.64156 10.3359 9.46881C10.6115 9.2729 10.9309 9.15024 11.3537 8.98785C11.3761 8.97925 11.3988 8.97054 11.4218 8.9617L12.8099 8.42782L11.4218 7.89393C11.3988 7.88509 11.3761 7.87637 11.3537 7.86777C10.9309 7.70539 10.6115 7.58273 10.3359 7.38682C10.093 7.21407 9.88073 7.00181 9.70799 6.75887C9.51208 6.48335 9.38941 6.16394 9.22703 5.7411C9.21843 5.71871 9.20972 5.69603 9.20088 5.67304L8.66699 4.28493ZM3.00033 11.0945C3.36852 11.0945 3.66699 11.393 3.66699 11.7611V12.7611H4.66699C5.03518 12.7611 5.33366 13.0596 5.33366 13.4278C5.33366 13.796 5.03518 14.0945 4.66699 14.0945H3.66699V15.0945C3.66699 15.4627 3.36852 15.7611 3.00033 15.7611C2.63214 15.7611 2.33366 15.4627 2.33366 15.0945V14.0945H1.33366C0.965469 14.0945 0.666992 13.796 0.666992 13.4278C0.666992 13.0596 0.965469 12.7611 1.33366 12.7611H2.33366V11.7611C2.33366 11.393 2.63214 11.0945 3.00033 11.0945Z" fill="currentColor" fill-opacity="0.49"/></symbol><symbol viewBox="0 0 24 20" fill="none" id="icon-telegram" xmlns="http://www.w3.org/2000/svg"><path d="M23.5468 0.822634C23.1374 0.514418 22.4944 0.470318 21.8295 0.707295H21.8285C21.1292 0.956388 2.03537 8.22758 1.25808 8.52465C1.11671 8.56826 -0.118008 8.97728 0.00917513 9.88836C0.122712 10.7098 1.11507 11.05 1.23625 11.0892L6.0905 12.5649C6.41255 13.5167 7.59977 17.0282 7.86233 17.7784C8.02608 18.2461 8.293 18.8606 8.7608 18.987C9.17128 19.1276 9.57957 18.9992 9.84376 18.815L12.8116 16.3711L17.6025 19.6883L17.7166 19.7489C18.0419 19.8768 18.3536 19.9408 18.6511 19.9408C18.8809 19.9408 19.1014 19.9025 19.3121 19.8259C20.0299 19.5642 20.317 18.957 20.347 18.8882L23.9256 2.37389C24.144 1.49189 23.8405 1.04313 23.5468 0.822634ZM10.3716 13.1552L8.73405 17.0321L7.0965 12.1859L19.6511 3.94744L10.3716 13.1552Z" fill="currentColor"/></symbol><symbol viewBox="0 0 20 19" fill="none" id="icon-tiktok" xmlns="http://www.w3.org/2000/svg"><path d="M17.0333 0.168945H2.96733C1.75547 0.168945 0.769531 1.15488 0.769531 2.36675V16.4327C0.769531 17.6446 1.75547 18.6305 2.96733 18.6305H17.0333C18.2451 18.6305 19.2311 17.6446 19.2311 16.4327V2.36675C19.2311 1.15488 18.2451 0.168945 17.0333 0.168945ZM15.2777 8.22301C15.1779 8.23224 15.0768 8.2384 14.9744 8.2384C13.8214 8.2384 12.8082 7.64543 12.2188 6.74917C12.2188 9.10037 12.2188 11.7755 12.2188 11.8204C12.2188 13.8903 10.5405 15.5685 8.47063 15.5685C6.40074 15.5685 4.7225 13.8903 4.7225 11.8204C4.7225 9.75048 6.40074 8.07224 8.47063 8.07224C8.54887 8.07224 8.62536 8.07928 8.70228 8.08411V9.93114C8.62536 9.92191 8.54975 9.90785 8.47063 9.90785C7.41393 9.90785 6.55766 10.7641 6.55766 11.8208C6.55766 12.8775 7.41393 13.7338 8.47063 13.7338C9.52733 13.7338 10.4605 12.9013 10.4605 11.8446C10.4605 11.8028 10.479 3.2318 10.479 3.2318H12.2443C12.4104 4.81026 13.6847 6.05598 15.2777 6.17026V8.22301Z" fill="currentColor"/></symbol><symbol viewBox="0 0 20 18" fill="none" id="icon-twitter" xmlns="http://www.w3.org/2000/svg"><path d="M17.644 3.57996C18.5011 3.04378 19.1424 2.1995 19.4482 1.20477C18.6428 1.70482 17.7616 2.05707 16.8428 2.24629C15.5688 0.836109 13.5504 0.492936 11.9154 1.40852C10.2803 2.32411 9.43338 4.27179 9.84786 6.16325C6.54889 5.98994 3.47532 4.35926 1.39198 1.677C0.304725 3.63941 0.860336 6.14802 2.6617 7.40987C2.01031 7.38796 1.37336 7.20341 0.80397 6.8716C0.80397 6.88961 0.80397 6.90762 0.80397 6.92563C0.804347 8.96981 2.18113 10.7306 4.09587 11.1357C3.49167 11.3078 2.8579 11.3331 2.24292 11.2098C2.78141 12.9579 4.32109 14.1555 6.07598 14.1913C4.62253 15.385 2.82756 16.0324 0.979895 16.0292C0.652398 16.0297 0.325158 16.01 -0.00012207 15.9702C1.87615 17.2318 4.05989 17.9015 6.29015 17.8991C9.39298 17.9214 12.3749 16.6414 14.5689 14.3454C16.7629 12.0493 17.9859 8.92888 17.9643 5.68201C17.9643 5.49592 17.9602 5.31082 17.9519 5.12673C18.7554 4.51903 19.449 3.7662 19.9999 2.90362C19.2513 3.25085 18.4572 3.47883 17.644 3.57996Z" fill="currentColor"/></symbol><symbol viewBox="0 0 24 18" fill="none" id="icon-youtube" xmlns="http://www.w3.org/2000/svg"><path d="M23.2522 3.32178C23.0311 2.15344 21.9775 1.30261 20.7548 1.03699C18.9252 0.665527 15.539 0.399902 11.8753 0.399902C8.21384 0.399902 4.77347 0.665527 2.94164 1.03699C1.72115 1.30261 0.665406 2.09949 0.444286 3.32178C0.220998 4.6499 -0.00012207 6.50928 -0.00012207 8.8999C-0.00012207 11.2905 0.220998 13.1499 0.498483 14.478C0.72177 15.6464 1.77534 16.4972 2.99584 16.7628C4.93823 17.1343 8.26804 17.3999 11.9317 17.3999C15.5954 17.3999 18.9252 17.1343 20.8676 16.7628C22.088 16.4972 23.1416 15.7003 23.3649 14.478C23.586 13.1499 23.8635 11.2366 23.9199 8.8999C23.8071 6.50928 23.5297 4.6499 23.2522 3.32178ZM8.87937 12.6187V5.18115L15.6496 8.8999L8.87937 12.6187Z" fill="currentColor"/></symbol></svg>