<svg xmlns="http://www.w3.org/2000/svg" xmlns:xlink="http://www.w3.org/1999/xlink"><symbol viewBox="0 0 24 24" fill="none" id="icon-Property_1=Instagram" xmlns="http://www.w3.org/2000/svg"><path fill-rule="evenodd" clip-rule="evenodd" d="M8.19471 2.82467C9.17904 2.77936 9.49289 2.76929 12.0003 2.76929C14.5077 2.76929 14.8216 2.7802 15.8051 2.82467C16.7886 2.86915 17.4599 3.02607 18.0473 3.25348C18.6624 3.48593 19.2204 3.84929 19.682 4.31922C20.1519 4.77992 20.5144 5.33712 20.746 5.95306C20.9743 6.54048 21.1304 7.21181 21.1757 8.19362C21.221 9.17964 21.2311 9.49348 21.2311 12.0001C21.2311 14.5075 21.2202 14.8213 21.1757 15.8057C21.1312 16.7875 20.9743 17.4588 20.746 18.0462C20.5144 18.6622 20.1513 19.2204 19.682 19.6817C19.2204 20.1517 18.6624 20.5142 18.0473 20.7458C17.4599 20.974 16.7886 21.1301 15.8067 21.1754C14.8216 21.2208 14.5077 21.2308 12.0003 21.2308C9.49289 21.2308 9.17904 21.2199 8.19471 21.1754C7.21289 21.131 6.54156 20.974 5.95415 20.7458C5.33814 20.5142 4.78001 20.151 4.31862 19.6817C3.84901 19.2208 3.4856 18.6629 3.25373 18.0471C3.02631 17.4596 2.87023 16.7883 2.82492 15.8065C2.7796 14.8205 2.76953 14.5066 2.76953 12.0001C2.76953 9.49265 2.78044 9.1788 2.82492 8.1953C2.86939 7.21181 3.02631 6.54048 3.25373 5.95306C3.48594 5.33719 3.84963 4.77934 4.31946 4.31838C4.78019 3.84887 5.33776 3.48546 5.95331 3.25348C6.54072 3.02607 7.21205 2.86999 8.19387 2.82467H8.19471ZM15.7304 4.48621C14.7569 4.44173 14.4649 4.4325 12.0003 4.4325C9.53569 4.4325 9.24366 4.44173 8.27023 4.48621C7.36981 4.52733 6.88142 4.67754 6.55583 4.80425C6.12534 4.97208 5.81736 5.17097 5.49429 5.49404C5.18803 5.79199 4.95234 6.1547 4.8045 6.55558C4.67778 6.88118 4.52757 7.36957 4.48645 8.26999C4.44198 9.24341 4.43275 9.53544 4.43275 12.0001C4.43275 14.4647 4.44198 14.7567 4.48645 15.7301C4.52757 16.6305 4.67778 17.1189 4.8045 17.4445C4.95219 17.8448 5.18799 18.2082 5.49429 18.5061C5.79219 18.8124 6.15555 19.0482 6.55583 19.1959C6.88142 19.3226 7.36981 19.4728 8.27023 19.5139C9.24366 19.5584 9.53485 19.5676 12.0003 19.5676C14.4658 19.5676 14.7569 19.5584 15.7304 19.5139C16.6308 19.4728 17.1192 19.3226 17.4448 19.1959C17.8753 19.028 18.1832 18.8292 18.5063 18.5061C18.8126 18.2082 19.0484 17.8448 19.1961 17.4445C19.3228 17.1189 19.473 16.6305 19.5142 15.7301C19.5586 14.7567 19.5679 14.4647 19.5679 12.0001C19.5679 9.53544 19.5586 9.24341 19.5142 8.26999C19.473 7.36957 19.3228 6.88118 19.1961 6.55558C19.0283 6.12509 18.8294 5.81712 18.5063 5.49404C18.2084 5.18781 17.8456 4.95212 17.4448 4.80425C17.1192 4.67754 16.6308 4.52733 15.7304 4.48621ZM10.8213 14.8457C11.4797 15.1197 12.2129 15.1567 12.8956 14.9503C13.5783 14.7439 14.1682 14.3068 14.5645 13.7138C14.9607 13.1208 15.1388 12.4086 15.0683 11.6989C14.9978 10.9892 14.6831 10.3259 14.1779 9.82243C13.8559 9.5006 13.4665 9.25417 13.0378 9.10088C12.6091 8.94759 12.1517 8.89127 11.6986 8.93596C11.2455 8.98065 10.808 9.12524 10.4175 9.35933C10.027 9.59341 9.69323 9.91117 9.44028 10.2897C9.18732 10.6683 9.02144 11.0982 8.95458 11.5486C8.88772 11.9989 8.92155 12.4585 9.05362 12.8942C9.1857 13.3299 9.41273 13.7309 9.71839 14.0684C10.024 14.4058 10.4007 14.6713 10.8213 14.8457ZM8.64534 8.64509C9.08592 8.20451 9.60896 7.85502 10.1846 7.61658C10.7603 7.37814 11.3772 7.25542 12.0003 7.25542C12.6234 7.25542 13.2404 7.37814 13.816 7.61658C14.3916 7.85502 14.9147 8.20451 15.3553 8.64509C15.7958 9.08567 16.1453 9.60872 16.3838 10.1844C16.6222 10.76 16.7449 11.377 16.7449 12.0001C16.7449 12.6231 16.6222 13.2401 16.3838 13.8158C16.1453 14.3914 15.7958 14.9144 15.3553 15.355C14.4655 16.2448 13.2587 16.7447 12.0003 16.7447C10.7419 16.7447 9.53513 16.2448 8.64534 15.355C7.75554 14.4652 7.25566 13.2584 7.25566 12.0001C7.25566 10.7417 7.75554 9.53488 8.64534 8.64509ZM17.7972 7.96202C17.9064 7.85902 17.9938 7.73517 18.0543 7.5978C18.1147 7.46042 18.147 7.31231 18.1492 7.16224C18.1514 7.01216 18.1234 6.86317 18.067 6.72409C18.0106 6.58501 17.9268 6.45867 17.8207 6.35254C17.7146 6.24641 17.5882 6.16265 17.4491 6.10623C17.3101 6.0498 17.1611 6.02185 17.011 6.02404C16.8609 6.02623 16.7128 6.05851 16.5754 6.11896C16.4381 6.17942 16.3142 6.26682 16.2112 6.376C16.0109 6.58833 15.9013 6.87037 15.9055 7.16224C15.9098 7.4541 16.0276 7.73282 16.234 7.93923C16.4404 8.14563 16.7191 8.26347 17.011 8.26772C17.3029 8.27198 17.5849 8.16231 17.7972 7.96202Z" fill="currentColor"/></symbol><symbol viewBox="0 0 24 24" fill="none" id="icon-Property_1=LinkedIn_-_Negative" xmlns="http://www.w3.org/2000/svg"><path d="M19.8645 2.76929H4.13251C3.37891 2.76929 2.76953 3.36424 2.76953 4.09982V19.8967C2.76953 20.6323 3.37891 21.2308 4.13251 21.2308H19.8645C20.6181 21.2308 21.2311 20.6323 21.2311 19.9003V4.09982C21.2311 3.36424 20.6181 2.76929 19.8645 2.76929ZM8.2467 18.5013H5.50631V9.68876H8.2467V18.5013ZM6.8765 8.48804C5.9967 8.48804 5.28636 7.7777 5.28636 6.9015C5.28636 6.0253 5.9967 5.31496 6.8765 5.31496C7.75271 5.31496 8.46304 6.0253 8.46304 6.9015C8.46304 7.7741 7.75271 8.48804 6.8765 8.48804ZM18.5015 18.5013H15.7647V14.2176C15.7647 13.1972 15.7467 11.8811 14.3404 11.8811C12.9162 11.8811 12.6998 12.9953 12.6998 14.1455V18.5013H9.96665V9.68876H12.5916V10.8931H12.6277C12.9919 10.2008 13.8861 9.46881 15.2167 9.46881C17.9895 9.46881 18.5015 11.2933 18.5015 13.6659V18.5013Z" fill="currentColor"/></symbol><symbol viewBox="0 0 24 24" fill="none" id="icon-Property_1=Telegram_1" xmlns="http://www.w3.org/2000/svg"><path d="M23.5468 2.42273C23.1374 2.11452 22.4944 2.07042 21.8295 2.30739H21.8285C21.1292 2.55649 2.03537 9.82768 1.25808 10.1247C1.11671 10.1684 -0.118008 10.5774 0.00917513 11.4885C0.122712 12.3099 1.11507 12.6501 1.23625 12.6893L6.0905 14.165C6.41255 15.1168 7.59977 18.6283 7.86233 19.3785C8.02608 19.8462 8.293 20.4607 8.7608 20.5871C9.17128 20.7277 9.57957 20.5993 9.84376 20.4151L12.8116 17.9712L17.6025 21.2884L17.7166 21.349C18.0419 21.4769 18.3536 21.5409 18.6511 21.5409C18.8809 21.5409 19.1014 21.5026 19.3121 21.426C20.0299 21.1643 20.317 20.5571 20.347 20.4883L23.9256 3.97399C24.144 3.09199 23.8405 2.64323 23.5468 2.42273ZM10.3716 14.7553L8.73405 18.6322L7.0965 13.786L19.6511 5.54754L10.3716 14.7553Z" fill="currentColor"/></symbol><symbol viewBox="0 0 24 24" fill="none" id="icon-Property_1=Telegram_2" xmlns="http://www.w3.org/2000/svg"><path d="M12 2.76929C17.0979 2.76929 21.2313 6.90188 21.2314 11.9998C21.2314 17.0978 17.098 21.2312 12 21.2312C6.90212 21.231 2.76953 17.0977 2.76953 11.9998C2.76969 6.90198 6.90223 2.76945 12 2.76929ZM15.7734 8.32593C15.4262 8.33205 14.8935 8.51753 12.3301 9.58374C11.4322 9.95719 9.6379 10.7298 6.94727 11.9021C6.51053 12.0758 6.28081 12.2457 6.25977 12.4119C6.21976 12.731 6.67975 12.8304 7.25781 13.0183C7.729 13.1715 8.36272 13.3509 8.69238 13.3582C8.99133 13.3646 9.32499 13.241 9.69336 12.988C12.2043 11.2931 13.5024 10.4354 13.5869 10.4148C13.6444 10.4018 13.7243 10.3854 13.7783 10.4333C13.8322 10.4812 13.827 10.5719 13.8213 10.5964C13.7756 10.7912 11.4171 12.9371 11.2783 13.0808C10.7589 13.6203 10.1677 13.9509 11.0791 14.5515C11.8674 15.071 12.3266 15.402 13.1387 15.9343C13.6579 16.2747 14.0655 16.679 14.6016 16.6296C14.8481 16.6068 15.103 16.3747 15.2324 15.6833C15.5382 14.0486 16.1394 10.5063 16.2783 9.04663C16.2905 8.91887 16.275 8.7553 16.2627 8.68335C16.2504 8.61151 16.2242 8.50912 16.1309 8.43335C16.0203 8.34368 15.8498 8.32458 15.7734 8.32593Z" fill="currentColor"/></symbol><symbol viewBox="0 0 24 24" fill="none" id="icon-Property_1=Ticktok" xmlns="http://www.w3.org/2000/svg"><path d="M19.0333 2.76929H4.96733C3.75547 2.76929 2.76953 3.75522 2.76953 4.96709V19.033C2.76953 20.2449 3.75547 21.2308 4.96733 21.2308H19.0333C20.2451 21.2308 21.2311 20.2449 21.2311 19.033V4.96709C21.2311 3.75522 20.2451 2.76929 19.0333 2.76929ZM17.2777 10.8234C17.1779 10.8326 17.0768 10.8387 16.9744 10.8387C15.8214 10.8387 14.8082 10.2458 14.2188 9.34951C14.2188 11.7007 14.2188 14.3759 14.2188 14.4207C14.2188 16.4906 12.5405 18.1688 10.4706 18.1688C8.40074 18.1688 6.7225 16.4906 6.7225 14.4207C6.7225 12.3508 8.40074 10.6726 10.4706 10.6726C10.5489 10.6726 10.6254 10.6796 10.7023 10.6845V12.5315C10.6254 12.5223 10.5498 12.5082 10.4706 12.5082C9.41393 12.5082 8.55766 13.3645 8.55766 14.4212C8.55766 15.4779 9.41393 16.3341 10.4706 16.3341C11.5273 16.3341 12.4605 15.5016 12.4605 14.4449C12.4605 14.4031 12.479 5.83214 12.479 5.83214H14.2443C14.4104 7.41061 15.6847 8.65632 17.2777 8.77061V10.8234Z" fill="currentColor"/></symbol><symbol viewBox="0 0 24 24" fill="none" id="icon-Property_1=Twitter" xmlns="http://www.w3.org/2000/svg"><path d="M19.6441 6.17993C20.5012 5.64375 21.1425 4.79948 21.4483 3.80474C20.6429 4.3048 19.7618 4.65705 18.8429 4.84626C17.569 3.43608 15.5505 3.09291 13.9155 4.0085C12.2804 4.92409 11.4335 6.87177 11.848 8.76323C8.54901 8.58991 5.47544 6.95924 3.3921 4.27698C2.30485 6.23938 2.86046 8.748 4.66182 10.0098C4.01043 9.98794 3.37348 9.80338 2.80409 9.47158C2.80409 9.48959 2.80409 9.5076 2.80409 9.52561C2.80447 11.5698 4.18125 13.3306 6.09599 13.7357C5.49179 13.9077 4.85802 13.9331 4.24304 13.8098C4.78153 15.5579 6.32121 16.7555 8.07611 16.7912C6.62265 17.985 4.82769 18.6323 2.98002 18.6292C2.65252 18.6297 2.32528 18.6099 2 18.5701C3.87627 19.8318 6.06002 20.5015 8.29028 20.4991C11.3931 20.5214 14.375 19.2414 16.569 16.9453C18.763 14.6493 19.986 11.5289 19.9644 8.28198C19.9644 8.09589 19.9603 7.9108 19.952 7.72671C20.7556 7.119 21.4491 6.36617 22 5.50359C21.2514 5.85083 20.4573 6.0788 19.6441 6.17993Z" fill="currentColor"/></symbol><symbol viewBox="0 0 24 24" fill="none" id="icon-Property_1=YOUTUBE" xmlns="http://www.w3.org/2000/svg"><path d="M23.2523 5.92188C23.0312 4.75354 21.9776 3.90271 20.7549 3.63708C18.9253 3.26562 15.5391 3 11.8755 3C8.21396 3 4.77359 3.26562 2.94177 3.63708C1.72127 3.90271 0.665529 4.69959 0.444408 5.92188C0.22112 7.25 0 9.10938 0 11.5C0 13.8906 0.22112 15.75 0.498605 17.0781C0.721892 18.2465 1.77547 19.0973 2.99596 19.3629C4.93835 19.7344 8.26816 20 11.9318 20C15.5955 20 18.9253 19.7344 20.8677 19.3629C22.0882 19.0973 23.1417 18.3004 23.365 17.0781C23.5862 15.75 23.8636 13.8367 23.92 11.5C23.8073 9.10938 23.5298 7.25 23.2523 5.92188ZM8.87949 15.2188V7.78125L15.6497 11.5L8.87949 15.2188Z" fill="currentColor"/></symbol><symbol viewBox="0 0 24 24" fill="none" id="icon-Property_1=facebook" xmlns="http://www.w3.org/2000/svg"><path fill-rule="evenodd" clip-rule="evenodd" d="M13.2532 20.5038C17.4249 19.8391 20.6133 16.2249 20.6133 11.8661C20.6133 7.03521 16.6971 3.11902 11.8662 3.11902C7.03533 3.11902 3.11914 7.03521 3.11914 11.8661C3.11914 16.2249 6.30741 19.8391 10.4791 20.5038C10.4711 20.4837 10.4666 20.4617 10.4666 20.4388V14.4908C10.4666 14.3942 10.3883 14.3158 10.2917 14.3158H8.54228C8.44566 14.3158 8.36734 14.2375 8.36734 14.1409V12.0416C8.36734 11.945 8.44566 11.8667 8.54228 11.8667H10.2917C10.3883 11.8667 10.4666 11.7883 10.4666 11.6917V9.41748C10.4666 8.36783 11.5863 6.61842 13.2657 6.61842H15.54C15.6366 6.61842 15.7149 6.69674 15.7149 6.79336V8.89265C15.7149 8.98927 15.6365 9.06759 15.5399 9.06759H14.4903C14.1404 9.06759 13.2657 9.41748 13.2657 10.1172V11.6918C13.2657 11.7884 13.344 11.8667 13.4406 11.8667H15.19C15.2867 11.8667 15.365 11.945 15.365 12.0416V14.1409C15.365 14.2375 15.2867 14.3158 15.19 14.3158H13.4406C13.344 14.3158 13.2657 14.3942 13.2657 14.4908V20.4388C13.2657 20.4617 13.2613 20.4837 13.2532 20.5038Z" fill="currentColor"/></symbol><symbol viewBox="0 0 24 24" fill="none" id="icon-discord" xmlns="http://www.w3.org/2000/svg"><path d="M19.9511 5.77432C18.0474 4.26701 15.0358 4.01151 14.9069 4.00231C14.707 3.98577 14.5165 4.09606 14.4343 4.27804C14.4268 4.28907 14.3614 4.43796 14.2886 4.66957C15.5477 4.87913 17.0946 5.30007 18.4939 6.15482C18.7181 6.29085 18.7872 6.58128 18.6489 6.80186C18.5574 6.94708 18.4023 7.02612 18.2417 7.02612C18.1557 7.02612 18.0679 7.00222 17.9895 6.95443C15.5832 5.48573 12.5791 5.4122 12 5.4122C11.4209 5.4122 8.41491 5.48573 6.01053 6.95443C5.78635 7.0923 5.49117 7.02428 5.35292 6.8037C5.21281 6.58128 5.28193 6.29269 5.50611 6.15482C6.9054 5.30191 8.45228 4.87913 9.71145 4.67141C9.63859 4.43796 9.5732 4.29091 9.5676 4.27804C9.48353 4.09606 9.29484 3.98209 9.09307 4.00231C8.96416 4.01151 5.95262 4.26701 4.02276 5.79454C3.0158 6.71179 1 12.0719 1 16.706C1 16.7887 1.02242 16.8677 1.06352 16.9394C2.45346 19.3438 6.24779 19.9724 7.11277 20C7.11651 20 7.12211 20 7.12772 20C7.28091 20 7.42476 19.9283 7.51444 19.807L8.38876 18.6232C6.02921 18.024 4.82422 17.0056 4.7551 16.9449C4.55707 16.774 4.53838 16.4762 4.71399 16.2814C4.88774 16.0865 5.19039 16.0681 5.38842 16.2391C5.41644 16.2648 7.63587 18.1177 12 18.1177C16.3716 18.1177 18.591 16.2575 18.6135 16.2391C18.8115 16.07 19.1123 16.0865 19.2879 16.2832C19.4616 16.478 19.4429 16.774 19.2449 16.9449C19.1758 17.0056 17.9708 18.024 15.6112 18.6232L16.4856 19.807C16.5752 19.9283 16.7191 20 16.8723 20C16.8779 20 16.8835 20 16.8872 20C17.7522 19.9724 21.5465 19.3438 22.9365 16.9394C22.9776 16.8677 23 16.7887 23 16.706C23 12.0719 20.9842 6.71179 19.9511 5.77432ZM8.8913 14.8237C7.96654 14.8237 7.21739 13.9818 7.21739 12.9414C7.21739 11.901 7.96654 11.0591 8.8913 11.0591C9.81607 11.0591 10.5652 11.901 10.5652 12.9414C10.5652 13.9818 9.81607 14.8237 8.8913 14.8237ZM15.1087 14.8237C14.1839 14.8237 13.4348 13.9818 13.4348 12.9414C13.4348 11.901 14.1839 11.0591 15.1087 11.0591C16.0335 11.0591 16.7826 11.901 16.7826 12.9414C16.7826 13.9818 16.0335 14.8237 15.1087 14.8237Z" fill="currentColor"/></symbol><symbol viewBox="0 0 24 24" fill="none" stroke="currentColor" stroke-width="2" stroke-linecap="round" stroke-linejoin="round" id="icon-example" xmlns="http://www.w3.org/2000/svg"><circle cx="12" cy="12" r="10"/><line x1="12" y1="8" x2="12" y2="16"/><line x1="8" y1="12" x2="16" y2="12"/></symbol><symbol viewBox="0 0 24 24" fill="none" id="icon-login" xmlns="http://www.w3.org/2000/svg"><path fill-rule="evenodd" clip-rule="evenodd" d="M12 4C10.067 4 8.49997 5.567 8.49997 7.5C8.49997 9.433 10.067 11 12 11C13.933 11 15.5 9.433 15.5 7.5C15.5 5.567 13.933 4 12 4ZM6.49997 7.5C6.49997 4.46243 8.96241 2 12 2C15.0375 2 17.5 4.46243 17.5 7.5C17.5 10.5376 15.0375 13 12 13C8.96241 13 6.49997 10.5376 6.49997 7.5ZM12 16C9.16094 16 6.63046 17.3693 5.01382 19.5088C4.91492 19.6397 4.83923 19.74 4.77627 19.8281C4.72848 19.895 4.69586 19.9442 4.67314 19.9814C4.82177 19.9984 5.03354 20 5.42721 20H18.5727C18.9664 20 19.1782 19.9984 19.3268 19.9814C19.3041 19.9442 19.2715 19.895 19.2237 19.8281C19.1607 19.74 19.085 19.6397 18.9861 19.5088C17.3695 17.3693 14.839 16 12 16ZM3.41812 18.3031C5.39108 15.692 8.49885 14 12 14C15.5011 14 18.6089 15.692 20.5818 18.3031C20.5907 18.3149 20.5997 18.3268 20.6087 18.3387C20.7783 18.563 20.9602 18.8035 21.0902 19.0356C21.2475 19.3165 21.3642 19.6414 21.3569 20.0366C21.3511 20.3542 21.2549 20.6516 21.138 20.8864C21.0211 21.1212 20.8419 21.3772 20.592 21.5734C20.2586 21.835 19.8957 21.9276 19.5733 21.9662C19.2905 22.0001 18.9553 22.0001 18.6183 22C18.6031 22 18.5879 22 18.5727 22H5.42721C5.41202 22 5.39682 22 5.38164 22C5.04464 22.0001 4.70946 22.0001 4.42662 21.9662C4.10423 21.9276 3.74132 21.835 3.408 21.5734C3.15805 21.3772 2.97882 21.1212 2.86195 20.8864C2.74507 20.6516 2.64883 20.3542 2.64302 20.0366C2.63579 19.6414 2.7524 19.3165 2.90974 19.0356C3.03972 18.8035 3.22161 18.563 3.39124 18.3387C3.40024 18.3268 3.4092 18.3149 3.41812 18.3031Z" fill="currentColor"/></symbol></svg>